<?xml version="1.0" encoding="utf-8"?>
<!-- Generator: Adobe Illustrator 24.0.0, SVG Export Plug-In . SVG Version: 6.00 Build 0)  -->
<svg version="1.1" id="Capa_1" xmlns="http://www.w3.org/2000/svg" xmlns:xlink="http://www.w3.org/1999/xlink" x="0px" y="0px"
	 viewBox="0 0 85.3 19.9" style="enable-background:new 0 0 85.3 19.9;" xml:space="preserve">
<style type="text/css">
	.st0{fill:#FFFFFF;}
</style>
<polygon class="st0" points="10.7,6.5 13.2,6.5 12.7,9.3 15.1,6.6 17.5,6.6 17,9.1 19.5,6.5 22,6.5 16.9,12.5 13.8,12.5 14.2,10.3 
	12.5,12.4 12.3,12.5 9.3,12.5 "/>
<polygon class="st0" points="22.6,6.5 25.6,6.5 24.4,8.6 25.6,8.6 26.8,6.3 29.7,6.3 26.4,12.3 23.5,12.3 24.5,10.5 23.4,10.5 
	22.4,12.5 19.2,12.5 "/>
<polygon class="st0" points="39.2,6.2 42.4,6.2 40.2,10.2 43.5,10.2 42.3,12.3 36.1,12.3 "/>
<polygon class="st0" points="46.5,6.2 53.1,6.2 51.9,8.2 48.5,8.2 48.3,8.6 51.7,8.6 51.1,9.7 47.7,9.7 47.3,10.2 50.8,10.2 
	49.6,12.1 43.1,12.1 "/>
<path class="st0" d="M33.1,10.1L33.1,10.1l-1.4,0l1.6-1.7L33.1,10.1z M27.2,12.4L27.2,12.4h2.6l0.8-0.8h2.2v0.7h2.7l0.7-5.8h-3.7
	L27.2,12.4z M57.4,8.6L57.4,8.6c-0.5,0-1.3,0-1.3,0l0.1-0.4h1.6C57.8,8.2,57.9,8.6,57.4,8.6z M59.5,6.3l-5.3-0.1l-3.3,5.9h3.2
	l0.8-1.6h0.7l0.6,1.6h3.1l-0.6-1.8C63.5,8.1,59.5,6.3,59.5,6.3z"/>
<path class="st0" d="M33.9,4.3V2.8l25.7-0.3l0.3,0.3h13.4l-1-1.5c0,0,2.5,2,3.6,1.6l0.2-0.2l-0.7-0.7c0,0,3.5,1.6,4,1.1L60,3.4
	l-0.5,0.5L33.9,4.3z"/>
<path class="st0" d="M84.5,2.3h-2.4c0,0-4.3,13.2-25.7,13.5L2.2,16.4l-1.1,1.8l55.4-0.6C56.4,17.7,75.7,19.3,84.5,2.3"/>
<g>
	<path class="st0" d="M11.5,5.1l0.6-3h1c0.3,0,0.5,0,0.6,0c0.2,0,0.3,0.1,0.4,0.2s0.1,0.3,0.1,0.4c0,0.2,0,0.3-0.1,0.4
		c-0.1,0.1-0.2,0.2-0.4,0.3c0.1,0,0.3,0.1,0.4,0.2c0.1,0.1,0.1,0.2,0.1,0.4c0,0.2-0.1,0.4-0.2,0.5C14,4.8,13.8,5,13.7,5
		c-0.2,0.1-0.4,0.1-0.7,0.1H11.5z M12.2,4.6h0.6c0.2,0,0.4,0,0.5,0c0.1,0,0.2-0.1,0.2-0.2c0.1-0.1,0.1-0.2,0.1-0.2
		c0-0.1,0-0.2-0.1-0.3c-0.1-0.1-0.2-0.1-0.4-0.1h-0.7L12.2,4.6z M12.5,3.3H13c0.2,0,0.4,0,0.4,0c0.1,0,0.2-0.1,0.2-0.1
		c0.1-0.1,0.1-0.1,0.1-0.2c0-0.1,0-0.1-0.1-0.2c0,0-0.1-0.1-0.1-0.1s-0.2,0-0.4,0h-0.5L12.5,3.3z"/>
	<path class="st0" d="M14.7,3.9c0-0.3,0.1-0.5,0.2-0.8c0.1-0.4,0.3-0.6,0.6-0.8C15.7,2.1,16,2,16.4,2c0.4,0,0.7,0.1,0.9,0.3
		c0.2,0.2,0.3,0.5,0.3,0.9c0,0.4-0.1,0.7-0.2,1C17.2,4.6,17,4.8,16.8,5c-0.2,0.1-0.5,0.2-0.8,0.2c-0.4,0-0.6-0.1-0.8-0.3
		C14.8,4.6,14.7,4.3,14.7,3.9z M15.3,3.9c0,0.2,0.1,0.4,0.2,0.5c0.1,0.1,0.3,0.2,0.5,0.2c0.2,0,0.3,0,0.5-0.1
		c0.1-0.1,0.3-0.3,0.4-0.5C17,3.8,17,3.6,17,3.3c0-0.2-0.1-0.4-0.2-0.6c-0.1-0.1-0.3-0.2-0.5-0.2c-0.2,0-0.3,0.1-0.5,0.2
		c-0.2,0.1-0.3,0.3-0.4,0.5C15.4,3.4,15.3,3.7,15.3,3.9z"/>
	<path class="st0" d="M17.9,4.1l0.6,0c0,0.2,0,0.3,0.1,0.3s0.1,0.1,0.2,0.1c0.1,0,0.2,0.1,0.3,0.1c0.2,0,0.3,0,0.4-0.1
		c0.1-0.1,0.1-0.2,0.1-0.3c0-0.1,0-0.1-0.1-0.2c-0.1-0.1-0.2-0.1-0.4-0.2c-0.3-0.1-0.5-0.2-0.6-0.3s-0.2-0.2-0.2-0.3
		s-0.1-0.2-0.1-0.4c0-0.3,0.1-0.5,0.3-0.6S19,2,19.3,2c0.3,0,0.6,0.1,0.8,0.2c0.2,0.2,0.3,0.4,0.3,0.7l-0.6,0c0-0.3-0.2-0.4-0.5-0.4
		c-0.2,0-0.3,0-0.4,0.1c-0.1,0.1-0.1,0.1-0.1,0.2c0,0.1,0,0.2,0.1,0.2c0.1,0.1,0.2,0.1,0.4,0.2c0.3,0.1,0.5,0.2,0.6,0.3
		c0.1,0.1,0.2,0.2,0.2,0.3s0.1,0.2,0.1,0.3c0,0.3-0.1,0.5-0.3,0.7c-0.2,0.2-0.5,0.3-0.9,0.3c-0.3,0-0.5,0-0.7-0.1
		C18.2,4.9,18,4.8,18,4.7C17.9,4.5,17.9,4.3,17.9,4.1z"/>
	<path class="st0" d="M21.9,5.1h-0.6l0.5-2.5h-0.9L21,2.1h2.4l-0.1,0.5h-0.9L21.9,5.1z"/>
</g>
<g>
	<path class="st0" d="M23.2,3.9c0-0.3,0.1-0.5,0.2-0.8c0.1-0.4,0.3-0.6,0.6-0.8C24.2,2.1,24.5,2,24.9,2c0.4,0,0.7,0.1,0.9,0.3
		c0.2,0.2,0.3,0.5,0.3,0.9c0,0.4-0.1,0.7-0.2,1c-0.2,0.3-0.4,0.5-0.6,0.7c-0.2,0.1-0.5,0.2-0.8,0.2c-0.4,0-0.6-0.1-0.8-0.3
		C23.3,4.6,23.2,4.3,23.2,3.9z M23.8,3.9c0,0.2,0.1,0.4,0.2,0.5c0.1,0.1,0.3,0.2,0.5,0.2c0.2,0,0.3,0,0.5-0.1
		c0.1-0.1,0.3-0.3,0.4-0.5c0.1-0.2,0.2-0.5,0.2-0.7c0-0.2-0.1-0.4-0.2-0.6c-0.1-0.1-0.3-0.2-0.5-0.2c-0.2,0-0.3,0.1-0.5,0.2
		S24.1,3,24,3.2C23.9,3.4,23.8,3.7,23.8,3.9z"/>
	<path class="st0" d="M28.6,5.1h-0.6l-0.8-2l-0.4,2h-0.6l0.6-3h0.6l0.8,2l0.4-2h0.6L28.6,5.1z"/>
</g>
</svg>
