<svg xmlns="http://www.w3.org/2000/svg" viewBox="0 0 659.6 200.6"><defs><style>.cls-1{fill:#fff;}.cls-2{fill:none;}</style></defs><title>Asset 1</title><g id="Layer_2" data-name="Layer 2"><g id="layer"><path id="path873" class="cls-1" d="M632.1,185.6c0-7.4,5.4-12.7,12.5-12.7,6.7,0,12,5.3,12,12.7a12,12,0,0,1-12,12.3,12.15,12.15,0,0,1-12.5-12.3m12.5,15a14.89,14.89,0,0,0,15-14.9,15.2,15.2,0,1,0-30.4,0c0,8.5,7,14.9,15.4,14.9"/><path id="path875" class="cls-1" d="M641.3,184.4V179h3.6c1.8,0,3.7.4,3.7,2.7,0,2.5-2,2.7-4.2,2.7h-3.1m0,2.2h3.1l4.5,7.5h3l-4.9-7.6a4.42,4.42,0,0,0,4.4-4.8c0-3.5-2-5-6.1-5h-6.6V194h2.6v-7.4"/><path id="path879" class="cls-1" d="M438.1,76.9c-7.1-14.7-17.2-18.1-26.5-18.1-17.6,0-29.3,19.4-29.3,37.7,0,23,12.2,38.5,30.3,38.5,8.5,0,19-3.5,27.3-23.1h16.5c-9.5,34.6-36.9,36.3-44.3,36.3-22.1,0-45.1-14.1-45.1-51.7,0-30,18.3-51.2,46.7-51,20.5.1,38.3,15.2,40.2,31.5H438.1"/><path id="path881" class="cls-1" d="M534.1,146.9H522.3v-71h11.3v8.8l2.1-3.7c4.4-4.1,9.2-7.1,18-7.1,1.5,0,.7.2,1.6.3V86.5h-2.8c-8-.2-18.3,8.7-18.3,19v41.4"/><path id="path883" class="cls-1" d="M503.8,111.3c-1.9,1.5-4.4,2-19.2,3.8-5.9.9-14.4,5.9-14.4,14.8,0,4.1,5.7,9.2,12.1,9.2,11.1-.1,22.1-7.2,22.1-16.7l-.6-11.1m-1,28.1c-4.6,5.1-9.5,9.5-23.5,9.5-13,0-23.6-7.5-23.6-19.7,0-6,3.2-20.6,23.1-23.1l19.7-2.4c2.7-.2,7.4-4.4,6.2-8.5-2.4-7.7-7.2-10.2-18.6-10.2-13.6,0-14.5,8.3-15.2,13.6H458.1c.9-18.9,14.4-24.8,31.8-24.8,5.7,0,26.3,1.6,26.3,19.8v53.2H503.9l-1.1-7.4"/><path id="path885" class="cls-1" d="M333.9,111.3c0-9.1-3.8-26.6-20-26.5-17.7,0-19.9,18.6-19.7,30,.2,14.3,12.5,20.8,20.4,20.8,9.4,0,19.3-8.7,19.3-24.3m-52.4,35.6V49.4h13.1V81.8l.3-1.8c6.7-6.7,12.6-7.9,21.2-8,19.5,0,32.1,17.1,32.1,37,0,17.1-8.9,40.2-33.7,40.2-12.6,0-18-5.3-20.6-9.2v6.9H281.5"/><path id="path887" class="cls-1" d="M176.6,76.9c-7.2-14.6-17.2-18-26.5-18-17.6,0-29.2,19.4-29.2,37.7,0,23,12.2,38.4,30.2,38.4,8.6,0,19-3.5,27.3-23.1H195c-9.6,34.6-37,36.3-44.4,36.3-22.2,0-45-14.1-45-51.6,0-30.1,18.2-51.3,46.7-51.1,20.5.2,38.4,15.2,40.2,31.5H176.6"/><path id="path889" class="cls-1" d="M263,146.9l.1-6.7c-5.1,8.3-17.8,7.9-21,7.9-10.4,0-25.2-4.1-25.2-21.2v-51h13.5V123c0,11.8,6,12.9,13.7,12.9,13.9,0,18.2-10.5,18.2-20.8V76h13.4v71H263"/><rect id="rect891" class="cls-1" x="198.9" y="48.6" width="12.6" height="98.4"/><path class="cls-1" d="M580.36,7a28.07,28.07,0,0,1,28,28V159.26a28.07,28.07,0,0,1-28,28H79.24a28.07,28.07,0,0,1-28-28V35a28.07,28.07,0,0,1,28-28H580.36m0-7H79.24a35.14,35.14,0,0,0-35,35V159.26a35.14,35.14,0,0,0,35,35H580.36a35.14,35.14,0,0,0,35-35V35a35.14,35.14,0,0,0-35-35Z"/><rect class="cls-2" width="44.2" height="200.6"/></g></g></svg>