<?xml version="1.0" encoding="utf-8"?>
<!-- Generator: Adobe Illustrator 24.0.0, SVG Export Plug-In . SVG Version: 6.00 Build 0)  -->
<svg version="1.1" id="Capa_1" xmlns="http://www.w3.org/2000/svg" xmlns:xlink="http://www.w3.org/1999/xlink" x="0px" y="0px"
	 viewBox="0 0 85.3 15.7" style="enable-background:new 0 0 85.3 15.7;" xml:space="preserve">
<style type="text/css">
	.st0{fill:#FFFFFF;}
</style>
<path class="st0" d="M78.4,5.9L78.4,5.9V5.6h0.2c0.1,0,0.2,0,0.2,0.1c0,0.1-0.1,0.1-0.2,0.1H78.4z M78.4,6L78.4,6h0.1l0.2,0.4h0.2
	L78.7,6c0.1,0,0.2-0.1,0.2-0.3c0-0.2-0.1-0.3-0.3-0.3h-0.4v0.9h0.2V6z M79.4,5.9L79.4,5.9c0-0.5-0.4-0.9-0.8-0.9
	c-0.5,0-0.8,0.3-0.8,0.9c0,0.5,0.3,0.9,0.8,0.9C79,6.8,79.4,6.4,79.4,5.9z M79.2,5.9c0,0.4-0.3,0.7-0.7,0.7c-0.4,0-0.7-0.3-0.7-0.7
	c0-0.4,0.3-0.7,0.7-0.7C78.9,5.2,79.2,5.5,79.2,5.9z"/>
<path class="st0" d="M9.9,1.7c2.8-0.7,5.5-0.8,8.3-0.8c0.2,0.2,0.5-0.1,0.8,0.2c-0.1,0.4-0.5,0.6-0.9,0.9c-0.1,0.1-0.2,0-0.3,0
	c-2.4-0.8-5-0.3-7.4,0.5C8.5,3.2,6.7,4,5,5.4C3.8,6.3,2.6,7.4,2.5,9c0.2,0.6,0.7,1.2,1.4,1.2c4,0.1,7.8-1.5,11.3-3.4
	c0.7-0.8,1.4-1.5,2.3-2.1c0.7-0.5,1.6-0.3,2.3-0.3c0.3,0,0.4,0.2,0.3,0.4c-0.1,0.1-0.3,0.1-0.4,0.2c-1,0.9-2.1,1.7-3,2.8
	c0,0,0,0.1,0.1,0.1c0.5-0.2,1.1-0.4,1.6-0.3c0.7,0.2,0.4,1,0.1,1.3c0.1,0,0.1,0.1,0.2,0.1c0.8-0.3,1.6-0.7,2.3-1.3
	c0.2-0.9,0.9-2.2,2.1-1.9c0.6,0.5-0.2,1.1-0.4,1.6c0,0,0,0.1,0.1,0.1c0.6,0.3,1.3-0.1,1.9,0C25,8.1,24.1,8.4,24,8.8
	c0,0,0.1,0.1,0.2,0.1c1.6-0.6,3.1-1.4,4.8-1.2c0.4,0.3-0.1,0.7-0.3,1c0,0,0.1,0.1,0.1,0.1c1.7-0.7,3.3-1.5,5-2.1
	c0.1,0,0.3,0,0.4,0.1c0,0,0,0.1,0,0.1c-0.1,0.2-0.2,0.3-0.3,0.5c-0.5,1-0.2,2.8-1.6,2.9c-0.8,0.1-1.8,0.1-2.4-0.5
	c-0.1-0.1-0.1-0.3,0.1-0.3c0.3-0.1,0.7,0.1,1,0.2c0.2,0,0.4,0.1,0.5-0.1c0.2-0.3,0.3-0.6,0.2-1c0-0.1-0.1-0.1-0.2-0.1
	c-1.5,0.7-3,1.3-4.5,1.8c-0.5,0-0.9,0.1-1.4-0.1c-0.3-0.5,0.2-0.8,0.4-1.1c0,0,0-0.1-0.1-0.1c-1.2,0.3-2.2,0.9-3.4,1.2
	c-0.5,0.2-1.1,0.3-1.4-0.2c-0.4-0.7,0.5-1.1,0.8-1.7c0,0,0-0.1-0.1-0.1c-1,0.3-1.6,1-2.5,1.3c-0.4,0.2-0.7,0.3-1.1,0.4
	c-0.5,0.2-1,0.4-1.6,0.3c-0.3,0-0.6-0.1-0.7-0.4c-0.1-0.2,0-0.5,0.1-0.8c-0.1,0-0.1-0.1-0.1-0.1c-1.2,0.6-2.3,1.4-3.6,1.3
	C12,10.2,12,9.7,12.3,9.4c0,0,0-0.1-0.1-0.1c-2.9,1.1-5.9,2.3-9.1,1.6C2.2,10.6,1.4,10.2,1,9.4C0,7.4,1.6,5.6,3.2,4.4
	C5.2,2.9,7.5,2.3,9.9,1.7"/>
<path class="st0" d="M29.3,6.8c0.6,0,1.1-0.5,1.1-1.1c0-0.6-0.5-1.1-1.1-1.1c-0.6,0-1.1,0.5-1.1,1.1C28.2,6.3,28.7,6.8,29.3,6.8"/>
<polygon class="st0" points="39.9,5.9 38.2,7.4 36.1,7.4 37.1,8.3 35.3,10.2 38.2,9.2 39.7,10.4 39.9,8.5 42.3,7.4 40,7.4 "/>
<path class="st0" d="M62.5,8.8L62.5,8.8c0.2-0.2,0.4-0.3,0.5-0.5c-0.6-0.2-1,0.5-1.4,0.9c0,0,0,0.1,0.1,0.1C62,9.2,62.3,9,62.5,8.8
	 M63.8,15h-0.7l0,0c-0.6-0.1-0.5-0.8-0.3-1.1c0.8-1.6,2-2.9,3.2-4.3c0,0,0-0.1-0.1-0.1c-0.4,0-0.9,0.2-1.3,0.3
	c-0.9,0.2-2,0.7-2.8,0.1c-0.7,0.3-1.4,0.4-2.1,0.3c-0.4,0-0.6-0.5-0.9-0.7c-1,0.4-2.1,0.7-3.2,0.8c-0.5,0-0.9-0.5-0.7-0.9
	c0.2-0.5,0.6-0.7,1-1.1c0-0.1,0.1-0.1-0.1-0.2c-3,1.7-6.2,3.3-9.8,2.7c-1.2-0.2-2.4-0.9-2.6-2.2c-0.1-0.6,0-1.2,0.2-1.7
	c1.1-2.3,3.4-3.7,5.8-4.5c0.1,0,0.3-0.1,0.4-0.1c3.6-1.2,7.4-1.6,11.2-1.3c0.1,0,0.1,0.1,0.1,0.1c-0.3,0.3-0.5,0.6-0.9,0.8
	c-4-1.2-8.2,0.4-11.7,2.7c-1.6,1-3.1,2.3-3.4,4.2c0.2,0.3,0.3,0.7,0.6,0.9c0.4,0.3,0.8,0.3,1.3,0.3c3,0.2,5.7-1.2,8.2-2.6
	c0.2-0.9,1-1.8,2-1.7c0.7,0.4,0,1.2-0.3,1.7c0.6,0.3,1.3,0.1,2,0.2c0.2,0,0.2,0.2,0.1,0.4c-0.2,0.4-0.6,0.5-0.9,0.9
	c0,0,0,0.1,0.1,0.1c1-0.1,1.8-0.7,2.7-1c1.1-0.4,2.3-0.5,3.5-0.6c0.3,0,0.7,0.1,1.1,0.1c0.2,0,0.3,0.2,0.4,0.3
	c0.1,0.3,0,0.6-0.3,0.8c0,0,0,0.1,0.1,0.1c0.7,0,1.3-0.3,2-0.5c1.2-1.2,2.3-2.5,3.5-3.7c0.7-0.4,1.4-0.4,2.2-0.3
	c0.2,0,0.3,0.3,0.1,0.4c-1,0.7-1.6,1.5-2.3,2.5c0,0,0,0.1,0.1,0.1c0.7,0,1.4,0,2.1,0c1.1-0.9,1.9-2.1,3-3c0.6-0.1,1.2-0.2,1.8-0.1
	c0.2,0,0.5,0.1,0.5,0.4c-1,0.7-1.7,1.6-2.5,2.5c0,0,0,0.1,0.1,0.1c2.8,0.1,5.6,0,8.4,0c0.1,0,0.1,0.1,0.1,0.1
	c-0.2,0.3-0.4,0.6-0.7,0.8c-1.8,0-3.3,0.1-5.3,0c-1.2,0-2.3,0-3.5,0c-0.8,0.4-1.2,1.4-2,1.9c-0.5,0.3-1.1,0.2-1.7,0.2
	c-0.2,0-0.6-0.1-0.4-0.4c0.3-0.5,0.8-0.9,1.2-1.4c0,0,0-0.1-0.1-0.1c-0.6,0-1.2,0-1.7,0c-0.2,0-0.3,0.1-0.3,0.3
	c-0.1,0.7,0.2,1.5-0.3,2c-1.6,1.7-3.3,3.2-5.4,4.3C64.1,14.9,64,15,63.8,15z M68.4,10.7c0.4-0.4,0.8-1,0.6-1.5c0,0-0.1,0-0.2,0.1
	c-1.1,1.1-2.1,2.2-3,3.4c0,0,0,0.1,0.1,0.1C66.7,12.1,67.6,11.5,68.4,10.7z"/>
</svg>
