<?xml version="1.0" encoding="utf-8"?>
<!-- Generator: Adobe Illustrator 23.0.0, SVG Export Plug-In . SVG Version: 6.00 Build 0)  -->
<svg version="1.1" id="Capa_1" xmlns="http://www.w3.org/2000/svg" xmlns:xlink="http://www.w3.org/1999/xlink" x="0px" y="0px"
	 viewBox="0 0 38 14" style="enable-background:new 0 0 38 14;" xml:space="preserve">
<style type="text/css">
	.st0{fill:#FFFFFF;}
	.st1{fill-rule:evenodd;clip-rule:evenodd;fill:#1F345F;}
</style>
<path class="st0" d="M35.2,0.4H2.7c-1.5,0-2.7,1.2-2.7,2.7v8c0,1.5,1.2,2.7,2.7,2.7h32.6c1.5,0,2.7-1.2,2.7-2.7v-8
	C38,1.6,36.7,0.4,35.2,0.4"/>
<path class="st1" d="M37.3,11c0,1.2-0.9,2.1-2.1,2.1H2.7c-1.2,0-2.1-0.9-2.1-2.1V3.2c0-1.2,0.9-2.1,2.1-2.1h32.4
	c1.2,0,2.1,0.9,2.1,2.1V11z M32.3,7.6c0-0.7,0.7-1.3,1.2-1.2h0.2V5.6c-0.1,0,0,0-0.1,0c-0.6,0-0.9,0.2-1.2,0.5l-0.1,0.2V5.7h-0.7
	v4.6h0.8V7.6z M10,5.8c-0.1-1.1-1.3-2-2.6-2c-1.9,0-3,1.4-3,3.3c0,2.4,1.5,3.4,2.9,3.4c0.5,0,2.3-0.1,2.9-2.4H9.1
	C8.5,9.3,7.8,9.6,7.3,9.6c-1.2,0-2-1-2-2.5c0-1.2,0.8-2.5,1.9-2.5c0.6,0,1.3,0.2,1.7,1.2H10z M10.4,10.3h0.8V3.9h-0.8V10.3z
	 M15.4,10.3V5.7h-0.9v2.6c0,0.7-0.3,1.4-1.2,1.4c-0.5,0-0.9-0.1-0.9-0.8V5.7h-0.9V9c0,1.1,1,1.4,1.6,1.4c0.2,0,1,0,1.4-0.5l0,0.4
	H15.4z M19.2,8c0,1-0.7,1.6-1.3,1.6c-0.5,0-1.3-0.4-1.3-1.4c0-0.8,0.1-2,1.3-2C19,6.3,19.2,7.4,19.2,8z M16.6,10.3l0-0.5
	c0.2,0.3,0.5,0.6,1.3,0.6c1.6,0,2.2-1.5,2.2-2.6c0-1.3-0.8-2.4-2.1-2.4c-0.6,0-0.9,0.1-1.4,0.5l0,0.1V4h-0.9v6.4H16.6z M27.1,5.8
	c-0.1-1.1-1.3-2-2.6-2c-1.9,0-3,1.4-3,3.3c0,2.4,1.5,3.4,2.9,3.4c0.5,0,2.3-0.1,2.9-2.4h-1.1c-0.5,1.3-1.2,1.5-1.8,1.5
	c-1.2,0-2-1-2-2.5c0-1.2,0.8-2.5,1.9-2.5c0.6,0,1.3,0.2,1.7,1.2H27.1z M30.3,8.7c0,0.6-0.7,1.1-1.4,1.1c-0.4,0-0.8-0.3-0.8-0.6
	c0-0.6,0.6-0.9,0.9-1c1-0.1,1.1-0.2,1.3-0.3L30.3,8.7z M30.3,10.3h0.8V6.9c0-1.2-1.3-1.3-1.7-1.3c-1.1,0-2,0.4-2.1,1.6h0.8
	c0.1-0.4,0.1-0.9,1-0.9c0.7,0,1.1,0.2,1.2,0.7c0.1,0.3-0.2,0.5-0.4,0.5l-1.3,0.2c-1.3,0.2-1.5,1.1-1.5,1.5c0,0.8,0.7,1.3,1.6,1.3
	c0.9,0,1.2-0.3,1.5-0.6L30.3,10.3z M35.2,0.7H2.7c-1.3,0-2.4,1.1-2.4,2.4v8c0,1.3,1.1,2.4,2.4,2.4h32.6c1.3,0,2.4-1.1,2.4-2.4v-8
	C37.6,1.8,36.5,0.7,35.2,0.7z"/>
</svg>
