<?xml version="1.0" encoding="utf-8"?>
<!-- Generator: Adobe Illustrator 24.0.0, SVG Export Plug-In . SVG Version: 6.00 Build 0)  -->
<svg version="1.1" id="Capa_1" xmlns="http://www.w3.org/2000/svg" xmlns:xlink="http://www.w3.org/1999/xlink" x="0px" y="0px"
	 viewBox="0 0 65.3 15.9" style="enable-background:new 0 0 65.3 15.9;" xml:space="preserve">
<style type="text/css">
	.st0{fill-rule:evenodd;clip-rule:evenodd;fill:#FFFFFF;}
</style>
<path class="st0" d="M4.7,4.6H9c0,0.6,0,1.1,0,1.7c0,1.7-0.3,2.9-2,2.9c-0.3,0-0.7,0-1,0l-1.1,0l-1,0c-1.8,0-3-0.2-3.1-2.9
	c0-0.3,0-0.7,0-1c0-2.8,0.2-4.1,2.6-4.1l1.4,0c0.2,0,0.3,0,0.5,0c0.4,0,0.9,0,1.3,0c1.5,0.1,2.4,0.5,2.4,2.6v0.1H7.1
	c0-0.3,0-0.7-0.3-0.8C6.5,3,6.2,3,5.9,3C5.2,3,4.5,3,3.7,3c-1,0-1,0.7-1,1.8v0.7c0,1,0.1,1.6,0.9,1.7c0.2,0,0.5,0,0.7,0
	c0.6,0,1.1,0,1.7,0c0.6,0,1-0.2,1-1c0-0.1,0-0.2,0-0.2H4.7V4.6z"/>
<polygon class="st0" points="10.2,1.3 17,1.3 17,3.1 12.1,3.1 12.1,4.4 16.7,4.4 16.7,5.9 12.1,5.9 12.1,7.3 17,7.3 17,9 10.2,9 "/>
<polygon class="st0" points="26.7,9 23.8,9 20.1,3.2 20.1,9 18.4,9 18.4,1.3 21.3,1.3 25,7.1 25,1.3 26.7,1.3 "/>
<polygon class="st0" points="28.3,1.3 35.1,1.3 35.1,3.1 30.2,3.1 30.2,4.4 34.8,4.4 34.8,5.9 30.2,5.9 30.2,7.3 35.1,7.3 35.1,9 
	28.3,9 "/>
<path class="st0" d="M36.5,1.3h5.7c1.4,0,2,0.6,2,2.4c0,0.5,0,1.1-0.3,1.6c-0.2,0.5-0.7,0.6-1.1,0.7c0.8,0.1,1.2,0.4,1.2,1.5V9h-1.9
	V8.3c0-0.8,0-1.2-0.8-1.2h-3.1v2h-1.8V1.3z M41.1,5.2h0.2c0.9,0,0.9-0.2,0.9-1.1c0-0.4,0-0.7-0.4-0.8c-0.2-0.1-0.4-0.1-0.5-0.1h-0.1
	h-2.9v2H41.1z"/>
<path class="st0" d="M47.5,7.6L46.9,9h-2.1l3.4-7.7h2.5L54,9h-2l-0.6-1.4H47.5z M49.4,3l-1.3,3h2.6L49.4,3z"/>
<path class="st0" d="M62.1,6.1c0,0.1,0,0.2,0,0.3c0,2.1-0.5,2.6-2.3,2.6c-0.5,0-0.9,0-1.4,0l-1.1,0c-1.5,0-2.7-0.1-2.9-2.5
	c0-0.5-0.1-1.1-0.1-1.6c0-2.2,0.3-3.5,2.2-3.7c0.6-0.1,1.2-0.1,1.7-0.1c0.8,0,1.5,0,2.3,0.1C61.9,1.5,62,2.7,62.1,4h-1.8
	c0-0.8-0.3-0.9-0.9-0.9c-0.2,0-0.3,0-0.5,0h-0.5l-0.9,0c-1.2,0-1.2,0.6-1.2,2c0,1.6,0.1,2,1.4,2l0.7,0c0.3,0,0.6,0,0.9,0
	c0.6,0,1-0.1,1-1.1H62.1z"/>
<polygon class="st0" points="0.4,12.9 62.2,15.4 62.2,10.1 0.4,12.6 "/>
<path class="st0" d="M63.5,1.5c0.1,0,0.2,0,0.3,0.1c0.1,0,0.2,0.1,0.3,0.2c0.1,0.1,0.1,0.2,0.2,0.3c0,0.1,0.1,0.2,0.1,0.3
	c0,0.1,0,0.2-0.1,0.3c0,0.1-0.1,0.2-0.2,0.3C64,2.9,63.9,3,63.8,3c-0.1,0-0.2,0.1-0.3,0.1c-0.1,0-0.2,0-0.3-0.1
	c-0.1,0-0.2-0.1-0.3-0.2c-0.1-0.1-0.1-0.2-0.2-0.3c0-0.1-0.1-0.2-0.1-0.3c0-0.1,0-0.2,0.1-0.3c0-0.1,0.1-0.2,0.2-0.3
	c0.1-0.1,0.2-0.1,0.3-0.2C63.3,1.5,63.4,1.5,63.5,1.5 M64.2,2.3c0-0.1,0-0.2-0.1-0.3c0-0.1-0.1-0.2-0.1-0.2
	c-0.1-0.1-0.1-0.1-0.2-0.2c-0.1,0-0.2-0.1-0.3-0.1c-0.1,0-0.2,0-0.3,0.1c-0.1,0-0.2,0.1-0.2,0.1c-0.1,0.1-0.1,0.1-0.2,0.2
	c0,0.1-0.1,0.2-0.1,0.3c0,0.1,0,0.2,0.1,0.3c0,0.1,0.1,0.2,0.2,0.2c0.1,0.1,0.1,0.1,0.2,0.2C63.3,3,63.4,3,63.5,3
	c0.1,0,0.2,0,0.3-0.1c0.1,0,0.2-0.1,0.2-0.2c0.1-0.1,0.1-0.1,0.1-0.2C64.2,2.5,64.2,2.4,64.2,2.3z M63.5,1.8c0.1,0,0.2,0,0.3,0.1
	c0.1,0,0.1,0.1,0.1,0.2c0,0.1,0,0.1-0.1,0.2c0,0-0.1,0.1-0.2,0.1l0.2,0.4h-0.2l-0.2-0.4h-0.2v0.4h-0.2V1.8H63.5z M63.5,1.9h-0.1v0.3
	h0.1c0.1,0,0.1,0,0.2,0c0,0,0.1-0.1,0.1-0.1c0-0.1,0-0.1-0.1-0.1C63.6,1.9,63.5,1.9,63.5,1.9z"/>
</svg>
