<?xml version="1.0" encoding="utf-8"?>
<!-- Generator: Adobe Illustrator 23.0.0, SVG Export Plug-In . SVG Version: 6.00 Build 0)  -->
<svg version="1.1" id="Capa_1" xmlns="http://www.w3.org/2000/svg" xmlns:xlink="http://www.w3.org/1999/xlink" x="0px" y="0px"
	 viewBox="0 0 58 14" style="enable-background:new 0 0 58 14;" xml:space="preserve">
<style type="text/css">
	.st0{fill-rule:evenodd;clip-rule:evenodd;fill:#1F345F;}
	.st1{fill:#FFFFFF;}
	.st2{fill-rule:evenodd;clip-rule:evenodd;fill:#FFFFFF;}
</style>
<path class="st0" d="M13.1,7.1l-6,0l1,1c0.1,0.1,1.4-0.2,1.7-0.3C10.2,7.7,12.9,7.2,13.1,7.1"/>
<path class="st0" d="M1,7.1l6,0C6.9,7,6.1,6.2,6,6.1C5.9,6,4.6,6.3,4.4,6.4C3.9,6.5,1.2,7,1,7.1"/>
<path class="st0" d="M7.1,7.1c0.2-0.1,0.7-0.8,1-1c0-0.4-0.2-0.9-0.2-1.3L7.3,2.3c0-0.1-0.2-1.1-0.3-1.2L7.1,7.1z"/>
<path class="st0" d="M6,8.2l1,4.9l0-5.9C7,7.2,7,7.2,7,7.2L6,8.2z"/>
<path class="st0" d="M3.7,10.4l1-1c0.2-0.1,0.9-0.9,1-1L4.9,8.2L3.7,10.4z"/>
<path class="st0" d="M5.8,5.8L6,4.9L3.8,3.8C4,4.1,5.5,5.5,5.8,5.8"/>
<path class="st0" d="M8.4,5.8L9.2,6l1.1-2.2c-0.2,0.1-1.3,1.3-1.5,1.5C8.7,5.5,8.5,5.6,8.4,5.8"/>
<path class="st0" d="M8.2,9.3l2.2,1.2c-0.1-0.2-1.8-1.8-2-2C8.3,8.6,8.2,9.1,8.2,9.3"/>
<path class="st1" d="M6,4.8L3.5,3.5l1.3,2.5L0.7,7.1l4.1,1.1l-1.3,2.5L6,9.4l1.1,4.2c0.1-0.3,0.2-0.7,0.3-1c0.1-0.5,0.7-3,0.8-3.1
	l2.5,1.3L9.3,8.2l4.1-1.1L9.3,6.1l1.3-2.5c-0.2,0.1-2.2,1.1-2.5,1.3l-1.1-4L6,4.8z M5.8,5.8c-0.3-0.3-1.8-1.7-2-2L6,4.9L5.8,5.8z
	 M8.4,5.8c0.1-0.2,0.3-0.3,0.5-0.5c0.2-0.2,1.3-1.4,1.5-1.5L9.2,6L8.4,5.8z M7.1,1.1c0.1,0.1,0.3,1.1,0.3,1.2l0.5,2.5
	c0.1,0.4,0.2,0.9,0.2,1.3c-0.3,0.2-0.8,0.9-1,1L7.1,1.1z M1,7.1C1.2,7,3.9,6.5,4.4,6.4C4.6,6.3,5.9,6,6,6.1c0.1,0.1,0.9,0.9,1,1
	L1,7.1z M13.1,7.1c-0.2,0.1-2.9,0.6-3.4,0.7c-0.2,0-1.5,0.4-1.7,0.3l-1-1L13.1,7.1z M7,7.2C7,7.2,7,7.2,7,7.2l0.1,5.9L6,8.2L7,7.2z
	 M4.9,8.2l0.9,0.2c-0.1,0.1-0.8,0.9-1,1l-1,1L4.9,8.2z M8.2,9.3c0-0.2,0.1-0.7,0.2-0.8c0.2,0.2,1.9,1.8,2,2L8.2,9.3z"/>
<path class="st2" d="M28.1,5.9l2.5,2.3l0,0l0.3,0.3h-1.1c-0.3-0.2-0.6-0.5-0.8-0.8h-2.2c-0.3,0.3-0.6,0.5-0.8,0.8h-1.1l0.3-0.3l0,0
	c0.9-0.8,1.7-1.6,2.6-2.3L28.1,5.9L28.1,5.9z M35.2,5.8h0.7v2.6h-0.3c-1.2-0.6-2.4-1.1-3.5-1.6v1.6h-0.9V5.8h0.3
	c1.2,0.6,2.4,1.1,3.6,1.6V5.8H35.2z M41,5.8h0.7v2.6h-0.3c-1.2-0.5-2.4-1.1-3.5-1.6v1.6h-0.9V5.8h0.3c1.2,0.6,2.4,1.1,3.6,1.6V5.8
	H41z M43.1,5.8h3.5v0.5h-2.7v0.4h2.7v0.5h-2.7v0.6h2.7v0.5H43V5.8H43.1z M50.1,5.9l2.5,2.3l0,0L53,8.4h-1.1
	c-0.3-0.2-0.6-0.5-0.8-0.8h-2.2L48,8.4h-1.1l0.3-0.3c0.9-0.8,1.7-1.6,2.6-2.3L50.1,5.9L50.1,5.9z M56.6,5.8h0.7v1.5
	c0,0.1,0,0.2,0,0.3c0,0.1-0.1,0.2-0.1,0.3C57,8,56.9,8.1,56.8,8.2c-0.1,0.1-0.2,0.1-0.4,0.2c-0.2,0-0.3,0.1-0.5,0.1
	c-0.2,0-0.4,0-0.6,0c-0.2,0-0.4,0-0.6,0c-0.2,0-0.4-0.1-0.5-0.1c-0.2,0-0.3-0.1-0.4-0.2c-0.1-0.1-0.2-0.1-0.3-0.2
	c0-0.1-0.1-0.1-0.1-0.2c0-0.1,0-0.2,0-0.3V5.8h0.9v1.5c0,0.1,0,0.2,0,0.2c0,0,0,0,0,0.1l0,0c0,0,0,0,0,0.1c0,0,0,0,0.1,0.1
	c0,0,0.1,0,0.2,0.1c0.1,0,0.1,0,0.2,0.1l0,0c0.1,0,0.2,0,0.3,0c0.1,0,0.2,0,0.3,0c0.1,0,0.2,0,0.2,0c0.1,0,0.2,0,0.2,0
	c0.1,0,0.1,0,0.2-0.1c0.1,0,0.1,0,0.2-0.1l0,0c0,0,0.1,0,0.1-0.1c0,0,0.1,0,0.1-0.1h0c0,0,0,0,0-0.1v0c0,0,0-0.1,0-0.2V5.8H56.6z
	 M18.7,7.7V5c0-0.1,0-0.1,0.1-0.1c0,0,0.1,0,0.1,0h0.6c0,0,0.1,0,0.1,0c0,0,0.1,0.1,0.1,0.1v2.6h0c0,0.9-1,0.9-1.1,0.9H16
	C15.5,8.5,15.5,8,15.5,8h0V7.5c0,0,0-0.1,0-0.1c0,0,0.1-0.1,0.1-0.1h0.7c0,0,0.1,0,0.1,0.1c0,0,0,0.1,0,0.1v0.3l0,0c0,0,0,0,0,0l0,0
	c0.6,0,1.4,0,1.9,0C18.6,7.8,18.7,7.7,18.7,7.7L18.7,7.7z M50.5,7.1l-0.5-0.5l-0.5,0.5H50.5z M28.4,7.1l-0.5-0.5l-0.5,0.5H28.4z
	 M20.8,8.3V5.8h3.7v0.5h-2.7v0.4h2.7v0.5h-2.7v0.6h2.7v0.5h-3.6V8.3z"/>
</svg>
