<?xml version="1.0" encoding="utf-8"?>
<!-- Generator: Adobe Illustrator 23.0.0, SVG Export Plug-In . SVG Version: 6.00 Build 0)  -->
<svg version="1.1" id="Capa_1" xmlns="http://www.w3.org/2000/svg" xmlns:xlink="http://www.w3.org/1999/xlink" x="0px" y="0px"
	 viewBox="0 0 36 5" style="enable-background:new 0 0 36 5;" xml:space="preserve">
<style type="text/css">
	.st0{fill:#FFFFFF;}
</style>
<path class="st0" d="M12.8,4.4c-0.5-0.1-0.8-0.4-1-0.6c-0.1-0.1-1.4-2-1.8-2.7v2.4c0,0.3,0,0.6,0.3,0.8v0h-1v0
	c0.3-0.2,0.3-0.4,0.3-0.8V1c0-0.3-0.1-0.5-0.4-0.7v0h1v0l2.1,3.2V1c0-0.3,0-0.6-0.3-0.8v0h1v0c-0.3,0.2-0.3,0.4-0.3,0.8V4.4z"/>
<path class="st0" d="M5.4,2.2C5.4,3.2,5.9,4,6.7,4c0.8,0,1.2-0.8,1.2-1.7c0-1-0.5-1.8-1.2-1.8C5.9,0.5,5.4,1.2,5.4,2.2 M8.6,2.2
	c0,1.3-0.9,2.2-2,2.2c-1.1,0-2-0.9-2-2.1c0-1.2,0.9-2.1,2-2.1C7.8,0.1,8.6,1.1,8.6,2.2z"/>
<path class="st0" d="M16.5,3.9V3c0-0.3,0-0.6-0.3-0.7v0h1v1.9c-0.3,0.1-0.9,0.2-1.2,0.2c-0.2,0-2.1,0-2.1-2.1c0-1.9,1.6-2.1,2-2.1
	c0.3,0,0.9,0,1.2,0.2v0.8h0c-0.3-0.4-0.5-0.6-1.1-0.6c-0.4,0-1.3,0.4-1.3,1.8c0,0.3,0.1,1.3,0.8,1.6C15.6,4,16.1,4.1,16.5,3.9"/>
<path class="st0" d="M35.3,3.9V3c0-0.3,0-0.6-0.3-0.7v0h1v1.9c-0.3,0.1-0.9,0.2-1.2,0.2c-0.2,0-2.1,0-2.1-2.1c0-1.9,1.6-2.1,2-2.1
	c0.3,0,0.9,0,1.2,0.2v0.8h0c-0.3-0.4-0.5-0.6-1.1-0.6c-0.4,0-1.3,0.4-1.3,1.8c0,0.3,0.1,1.3,0.8,1.6C34.3,4,34.9,4.1,35.3,3.9"/>
<path class="st0" d="M18.2,3.2C18.4,3.7,18.9,4,19.3,4C19.7,4,20,3.7,20,3.2c0-0.9-1.7-0.7-1.7-2c0-0.9,0.8-1.1,1.3-1.1
	c0.2,0,0.6,0.1,0.8,0.1l0,0.7l0,0c-0.3-0.5-0.5-0.6-0.9-0.6c-0.3,0-0.6,0.3-0.6,0.6c0,0.9,1.7,0.7,1.7,2.1c0,0.8-0.7,1.2-1.4,1.2
	c-0.1,0-0.6,0-0.9-0.2L18.2,3.2L18.2,3.2z"/>
<path class="st0" d="M22.4,0.6v3.3C23,4,23.9,4,23.9,3.1c0-0.5-0.4-0.9-1.2-0.9l0.1-0.3c0.3-0.1,0.8-0.2,0.8-0.8
	C23.6,0.6,22.9,0.5,22.4,0.6 M24.6,3.1c0,0.5-0.3,0.8-0.7,1c-0.4,0.2-0.9,0.2-1.4,0.2h-1v0c0.3-0.1,0.3-0.6,0.3-0.9V1.1
	c0-0.3,0-0.7-0.3-0.8v0h1.4c0.8,0,1.3,0.3,1.3,0.9c0,0.4-0.3,0.7-0.9,0.9C23.8,2.1,24.6,2.3,24.6,3.1z"/>
<path class="st0" d="M27.9,0.9L27.9,0.9c-0.2-0.2-0.3-0.5-1.5-0.4v1.3h1.2v0.6h0c-0.1-0.2-0.4-0.3-0.5-0.3h-0.6v1.7
	c1.5,0.2,1.7-0.4,1.8-0.5h0L28,4.3h-2.6v0c0.3-0.2,0.3-0.5,0.3-0.8V1c0-0.3,0-0.7-0.3-0.8v0h2.5V0.9z"/>
<path class="st0" d="M32.5,4.3H32c-0.2,0-0.5,0-0.8-0.4c-0.3-0.4-1.1-1.5-1.1-1.5l0.2-0.3C30.6,2,31,1.7,31,1.2
	c0-0.4-0.4-0.6-0.8-0.7c-0.1,0-0.2,0-0.4,0v2.8c0,0.3-0.1,0.7,0.3,0.8v0h-1.2v0c0.3-0.1,0.3-0.5,0.3-0.8V1.1c0-0.3,0-0.7-0.3-0.8v0
	h1.5c0.9,0,1.3,0.4,1.3,1c0,0.5-0.4,0.8-0.9,1C31.2,2.8,32,4.1,32.5,4.3L32.5,4.3z"/>
<path class="st0" d="M4.6,4.3L4.6,4.3L4,4.3c-0.3,0-0.5-0.1-0.7-0.4L2,2.1L3,1c0.3-0.3,0.4-0.6,0-0.8v0h1.2v0L2.7,1.9
	C3.1,2.6,4,4,4.6,4.3"/>
<path class="st0" d="M1.2,1.1c0-0.3,0-0.7-0.3-0.8v0h1.2v0C1.8,0.4,1.9,0.8,1.9,1.1v2.3c0,0.3,0,0.7,0.3,0.8v0H1v0
	c0.3-0.1,0.3-0.6,0.3-0.8V1.1z"/>
</svg>
