<?xml version="1.0" encoding="utf-8"?>
<!-- Generator: Adobe Illustrator 24.0.0, SVG Export Plug-In . SVG Version: 6.00 Build 0)  -->
<svg version="1.1" id="Capa_1" xmlns="http://www.w3.org/2000/svg" xmlns:xlink="http://www.w3.org/1999/xlink" x="0px" y="0px"
	 viewBox="0 0 85.3 12.2" style="enable-background:new 0 0 85.3 12.2;" xml:space="preserve">
<style type="text/css">
	.st0{fill:#FFFFFF;}
</style>
<path class="st0" d="M5.2,0.7h4.9L5.7,8.5c0,0-0.1,0.4,0.4,0.4h4.3l-0.8,1.5H1.1c0,0-0.7,0.2-0.7-1.1L5.2,0.7z"/>
<path class="st0" d="M20.5,5l0.8-1.3h-5.7c0,0-1.1-0.1-1.8,0.9c-0.7,1.1-2.6,4.2-2.6,4.2s-0.6,1.1,0.6,1.6h5.5l0.8-1.4h-3.1l0.5-1.3
	h3.4l0.9-1.4l-3.3-0.1l0.7-1.1L20.5,5z"/>
<polygon class="st0" points="21.8,3.8 20.8,10.4 24.2,10.4 30.9,3.7 29.4,3.7 24.8,8.3 24.5,8.3 25.1,3.7 "/>
<path class="st0" d="M38.7,3.8h-5.8c0,0-0.9-0.1-1.9,1l-2.4,4c0,0-0.8,1,0.4,1.6l5.7,0.1L35.6,9h-3.3L33,7.7h3.4l0.8-1.2h-3.3
	L34.6,5h3.3L38.7,3.8z"/>
<path class="st0" d="M47.1,0.7h-4.3c0,0-1.3,0.1-2.1,1.5c-0.9,1.4-5.3,9.2-5.3,9.2h3.7L42.9,5h3.3L47,3.7l-3.4,0l0.8-1.3h1.8
	L47.1,0.7z"/>
<path class="st0" d="M49.6,8.8L49.6,8.8h-1.2L50.5,5h1.1L49.6,8.8z M55.1,3.6H49c0,0-1.2,0.5-2,1.3L44.6,9c0,0-0.5,1.2,0.8,1.5h5.7
	c0,0,1.8-0.7,1.9-1.2l2.5-4.3C55.6,4.9,56.3,4.2,55.1,3.6z"/>
<path class="st0" d="M64.8,3.6h-5.6c0,0-1.5,0.2-2.2,1.2s-3.3,5.6-3.3,5.6h3.4l3.3-5.3H64L64.8,3.6z"/>
<path class="st0" d="M71,0.6h-3.8l-4.9,8.6c0,0-0.3,0.9,0.6,1.2h5.7L69.4,9h-2.7c0,0-0.4,0,0-0.8C67.1,7.5,68.6,5,68.6,5h2.1
	l0.8-1.4h-2L71,0.6z"/>
<polygon class="st0" points="79.8,0.7 78,0.7 77.9,0.8 73.2,8.8 74.1,10.5 83.8,10.5 84.8,9.1 84.5,8.7 83.8,9.8 83.5,9.8 84.5,8.5 
	84.2,8.2 83.5,9.3 83.3,9.1 84.2,7.8 83.9,7.5 83.1,8.7 83,8.5 83.8,7.2 83.5,6.9 82.8,8.1 82.6,7.9 83.5,6.7 83.2,6.5 82.4,7.6 
	82.2,7.4 83,6.2 82.9,5.9 82.1,7.2 81.8,7 82.7,5.6 82.4,5.4 81.7,6.4 81.5,6.4 82.4,5.1 82.1,4.8 81.3,6 81.1,5.8 82.1,4.4 
	81.8,4.1 81,5.3 80.8,5.2 81.7,4 81.5,3.6 80.6,4.8 80.5,4.7 81.3,3.3 81.1,3.1 80.4,4.3 80.2,4.1 80.9,2.9 80.8,2.5 79.2,5.3 
	80.2,7.2 77.8,7.2 80.7,2.1 80.4,1.9 77.3,7.3 77.3,7.5 77.7,7.5 80.2,7.5 80.4,7.5 81.2,8.8 73.4,8.8 78.1,0.9 79.7,0.9 75.9,7.4 
	76.4,7.4 76.4,7.3 80,1.1 "/>
<polygon class="st0" points="80.1,1.3 76.6,7.4 77,7.4 80.4,1.6 "/>
</svg>
