<?xml version="1.0" encoding="utf-8"?>
<!-- Generator: Adobe Illustrator 24.0.0, SVG Export Plug-In . SVG Version: 6.00 Build 0)  -->
<svg version="1.1" id="Capa_1" xmlns="http://www.w3.org/2000/svg" xmlns:xlink="http://www.w3.org/1999/xlink" x="0px" y="0px"
	 viewBox="0 0 57.8 14.4" style="enable-background:new 0 0 57.8 14.4;" xml:space="preserve">
<style type="text/css">
	.st0{fill-rule:evenodd;clip-rule:evenodd;fill:#FFFFFF;}
</style>
<path class="st0" d="M19.7,3.5c1.9,0.2,2.5,1.9,1.9,3.9s-2.1,3.4-4,3.2s-2.5-1.8-2-3.8C16.3,4.8,17.8,3.3,19.7,3.5 M3,0.9h4.9
	l-2,9.4h5.4c-0.4-0.8-0.5-1.8-0.3-2.9c0.6-3.7,4-6.7,8.8-6.9c3.2-0.1,5.3,1,6.2,2.8V3.2l-0.2-2.3h4.6l0.1,7.6l3.4-7.6h3.9L38,8.8
	l3.4-7.9h15.7l-0.5,2.8h-7.2L49,5.6h6.1l-0.7,2.8h-6l-0.4,2h7.4l-0.5,2.7H42.6L44.8,3l-5.1,10.1h-4.6l-0.3-7l-3.3,7h-4.6l-0.5-6
	c-0.7,3.5-4.4,6.3-8.8,6.5c-2.4,0.1-4.3-0.6-5.5-1.8l-0.3,1.5H0.4L3,0.9z"/>
</svg>
