<?xml version="1.0" encoding="utf-8"?>
<!-- Generator: Adobe Illustrator 24.0.0, SVG Export Plug-In . SVG Version: 6.00 Build 0)  -->
<svg version="1.1" id="Capa_1" xmlns="http://www.w3.org/2000/svg" xmlns:xlink="http://www.w3.org/1999/xlink" x="0px" y="0px"
	 viewBox="0 0 85.3 19.9" style="enable-background:new 0 0 85.3 19.9;" xml:space="preserve">
<style type="text/css">
	.st0{fill-rule:evenodd;clip-rule:evenodd;fill:#FFFFFF;}
</style>
<polygon class="st0" points="40.3,12 33.7,12 36.5,4.3 43.2,4.3 42.5,6.1 38.3,6.1 37.9,7.2 41.7,7.2 41.1,8.9 37.3,8.9 36.8,10.2 
	41,10.2 "/>
<path class="st0" d="M76,12l1.2-3.1l-1.4-4.6h2.6l0.7,2.5l2.6-2.5h2.9c0,0-4.8,4.6-5.1,4.9L78.5,12H76z"/>
<path class="st0" d="M48.7,12h-2.4c0,0,0.3-0.9,0.4-1.3c0.2-0.5,0.2-0.8,0-1.1c-0.2-0.3-0.6-0.4-0.8-0.4h-1.5l-1,2.7H41l2.9-7.7h4.6
	c0.8,0,1.4,0.3,1.8,0.8c0.3,0.4,0.3,0.9,0.3,1c0,1.6-1.5,2.2-1.9,2.4c0.2,0.1,1,0.7,0.6,2C49,11,48.7,12,48.7,12z M45.2,7.6
	L45.2,7.6l1.5,0h0c0.6,0,1-0.2,1.3-0.5c0.1-0.2,0.2-0.3,0.2-0.5c0-0.4-0.3-0.6-0.7-0.6l-1.8,0L45.2,7.6z"/>
<path class="st0" d="M73.7,12h-2.3c0,0,0.3-1,0.4-1.3c0.2-0.5,0.2-0.8,0-1.1c-0.2-0.3-0.6-0.4-0.8-0.4l-1.5,0l-1,2.7h-2.5L69,4.3
	h4.6c2,0,2.1,1.5,2.1,1.8c0,1.6-1.5,2.2-1.9,2.4c0.2,0.1,1,0.7,0.6,2C74.1,11,73.7,12,73.7,12z M70.2,7.6l1.5,0l0,0
	c0.6,0,1-0.2,1.3-0.5c0.1-0.2,0.2-0.3,0.2-0.5C73.2,6.2,73,6,72.5,6h-1.8L70.2,7.6z"/>
<path class="st0" d="M53.5,12.2c-2.8,0-3.2-1.9-3.2-2.8c0-1.1,0.4-2.3,1.3-3.3c1.1-1.3,2.8-2,4.5-2h0c1.6,0,2.4,0.6,2.7,1.2
	c0.4,0.5,0.5,1.2,0.4,1.8l0,0.1l-2.4,0l0-0.1c0-0.3,0-0.5-0.2-0.7C56.4,6.2,56,6,55.6,6h0c-0.7,0-1.4,0.4-2,1.1
	c-0.5,0.6-0.8,1.3-0.8,2c0,0.8,0.5,1.3,1.3,1.3h0c0.8,0,1.6-0.6,1.9-1.4l0,0l2.5,0L58.6,9c-0.4,1-1.1,1.8-1.9,2.3
	C55.8,11.9,54.8,12.2,53.5,12.2C53.5,12.2,53.5,12.2,53.5,12.2z"/>
<polygon class="st0" points="25.2,12 22.9,12 25.8,4.3 29.3,4.3 29,9 32.2,4.3 35.8,4.3 32.9,12 30.6,12 32.4,7.2 28.9,12 27,12 
	27.1,7 "/>
<path class="st0" d="M61.8,12.2L61.8,12.2c-1.1,0-2.1-0.5-2.5-1.2c-0.4-0.7-0.4-1.5-0.1-2.3l1.7-4.4h2.3l-1.7,4.5
	c-0.2,0.5-0.2,0.9,0,1.2c0.2,0.3,0.5,0.4,0.9,0.4l0,0c0.8,0,1.4-0.5,1.8-1.6L66,4.3h2.3l-1.7,4.4c-0.4,1.2-1,2-1.7,2.6
	C64.1,11.9,63.1,12.2,61.8,12.2L61.8,12.2z"/>
<path class="st0" d="M79.8,10.9c0.3,0,0.5,0.3,0.5,0.6c0,0.3-0.2,0.6-0.5,0.6c-0.3,0-0.5-0.3-0.5-0.6C79.3,11.1,79.6,10.9,79.8,10.9
	 M79.8,11.9c0.2,0,0.4-0.2,0.4-0.5c0-0.3-0.2-0.5-0.4-0.5c-0.2,0-0.4,0.2-0.4,0.5C79.4,11.7,79.6,11.9,79.8,11.9z M79.6,11.1h0.2
	c0.1,0,0.2,0.1,0.2,0.2c0,0.1-0.1,0.2-0.2,0.2l0.2,0.3H80l-0.2-0.3h-0.1v0.3h-0.1V11.1z M79.7,11.4L79.7,11.4c0.2,0,0.3,0,0.3-0.1
	c0-0.1-0.1-0.1-0.1-0.1h-0.1V11.4z"/>
<path class="st0" d="M48.6,14.2l-0.3,0.9h0.3l0.3-0.9h0.4L49,15.1h0.4l-0.1,0.4h-0.4l-0.1,0.3h0.4l-0.1,0.5h-0.4l-0.3,0.9H48
	l0.3-0.9H48l-0.3,0.9h-0.4l0.3-0.9h-0.4l0.1-0.5h0.5l0.1-0.3h-0.4l0.1-0.4H48l0.3-0.9H48.6z M48.1,15.9h0.3l0.1-0.3h-0.3L48.1,15.9z
	"/>
<path class="st0" d="M50.2,14.8C50.2,14.8,50.3,14.8,50.2,14.8c0.2,0,0.4-0.1,0.6-0.2c0.2-0.1,0.3-0.3,0.4-0.5l0.7,0l-0.6,3.2h-0.8
	l0.3-1.9h-0.7L50.2,14.8C50.2,14.8,50.2,14.8,50.2,14.8"/>
<polygon class="st0" points="56.1,14.1 56,14.9 54.6,14.9 54.6,15.3 55.7,15.3 55.6,16.1 54.4,16.1 54.3,16.5 55.8,16.5 55.7,17.3 
	53.2,17.3 53.8,14.1 "/>
<polygon class="st0" points="57.6,14.1 58.3,15.7 58.4,15.2 58.6,14.1 59.5,14.1 58.9,17.3 58,17.3 57.3,15.6 57.3,16.1 57.1,17.3 
	56.2,17.3 56.7,14.1 "/>
<polygon class="st0" points="63.3,14.1 63.2,14.9 61.8,14.9 61.7,15.3 62.9,15.3 62.7,16.1 61.6,16.1 61.5,16.5 62.9,16.5 
	62.8,17.3 60.4,17.3 60.9,14.1 "/>
<polygon class="st0" points="64.8,14.1 64.4,16.5 65.7,16.5 65.5,17.3 63.3,17.3 63.8,14.1 "/>
<path class="st0" d="M69.2,14.1l0.5,3.2h-1l0-0.4h-0.9l-0.2,0.4h-1l1.6-3.2H69.2z M68.6,16.2l-0.1-1.1L68,16.2H68.6z"/>
<path class="st0" d="M71.8,15.5h1.3l-0.3,1.8h-0.6l0-0.3c0,0,0,0-0.1,0.1c0,0,0,0-0.1,0.1c-0.1,0.1-0.2,0.1-0.3,0.2
	c-0.1,0-0.3,0.1-0.5,0.1c-0.5,0-0.8-0.2-1-0.5c-0.2-0.3-0.2-0.7-0.2-1.1c0,0,0,0,0,0c0,0,0,0,0,0c0.1-0.4,0.3-0.8,0.6-1.1
	c0.3-0.3,0.7-0.5,1.2-0.5c0.4,0,0.6,0.1,0.8,0.2c0.2,0.2,0.3,0.3,0.4,0.5c0,0.1,0,0.1,0,0.2c0,0.1,0,0.1,0,0.2l-0.9,0
	c0-0.1-0.1-0.2-0.1-0.3c-0.1-0.1-0.2-0.1-0.3-0.1c-0.2,0-0.3,0.1-0.4,0.3c-0.1,0.2-0.2,0.4-0.3,0.6c0,0,0,0,0,0c0,0,0,0,0,0
	c0,0.2,0,0.4,0,0.6c0.1,0.2,0.2,0.3,0.4,0.3c0.1,0,0.2,0,0.3-0.1c0.1-0.1,0.2-0.1,0.3-0.3h-0.4L71.8,15.5z"/>
<path class="st0" d="M74.9,14.1l-0.3,2c0,0.2,0,0.3,0.1,0.4c0.1,0.1,0.2,0.1,0.3,0.1c0,0,0,0,0,0c0,0,0,0,0,0c0,0,0,0,0,0s0,0,0,0
	c0.1,0,0.2-0.1,0.3-0.1c0.1-0.1,0.2-0.2,0.2-0.4l0.3-2h1l-0.3,2c-0.1,0.4-0.3,0.7-0.5,1c-0.3,0.2-0.7,0.3-1.1,0.3
	c-0.4,0-0.8-0.1-1-0.3c-0.2-0.2-0.3-0.6-0.2-1l0.3-2H74.9z"/>
<path class="st0" d="M79.1,14.1l0.5,3.2h-1l0-0.4h-0.9l-0.2,0.4h-1l1.6-3.2H79.1z M78.5,16.2l-0.1-1.1l-0.5,1.1H78.5z"/>
<path class="st0" d="M16.9,4c-1.4-1.2-3.2-2-5.2-2c-4.3,0-7.8,3.5-7.8,7.8c0,0.8,0.1,1.6,0.3,2.3c-0.1,0-0.2,0.1-0.3,0.1l0,0
	c-0.2,0.1-0.6,0.4-0.8,0.6l0,0c-0.3-0.9-0.5-1.9-0.5-3c0-5,4-9,9-9c2.8,0,5.2,1.2,6.9,3.2H16.9z M20.7,9.9c0,5-4,9-9,9
	c-2.3,0-4.3-0.8-5.9-2.2c0,0,0.1,0,0.1,0h0C6.2,16.5,6.6,16.3,7,16c1.3,1,2.9,1.6,4.7,1.6c4.3,0,7.8-3.5,7.8-7.8
	c0-0.7-0.1-1.3-0.2-1.9l0-0.1l0,0l0,0l0.7-1.6C20.4,7.3,20.7,8.6,20.7,9.9z"/>
<path class="st0" d="M20.5,4.3h-4.7l-2.7,3.3l-0.1,0l0-3.3H8.8l-3.2,7.5c0.3,0,0.6,0.1,0.8,0.2c0.2,0.1,0.4,0.1,0.7,0.1
	c0.6,0,1.2-0.3,1.8-0.6l1.6-4.1h0.1l0,2.9c0.6-0.4,1.2-0.7,1.8-0.7c0.5,0,0.8,0.1,1,0.2c0.2,0.1,0.3,0.1,0.5,0.1l2.3-2.7h0.1
	l-1.1,2.4c0.4-0.2,0.8-0.4,1.2-0.7l0.1-0.1c0.9-0.6,1.5-1,2.1-1.1l0.3,0L20.5,4.3z"/>
<path class="st0" d="M14.9,11.3c-0.9,0-1.6,0.6-2.8,1.4c-0.9,0.6-1.6,1.1-2.6,1.1c-0.7,0-0.9-0.3-1.7-0.3c-0.6,0-1.1,0.3-1.8,0.7
	c0,0,0,0,0,0c-0.3,0.2-0.8,0.5-1.1,0.7c0,0,0,0,0,0c-0.6,0.4-1.2,0.7-1.8,0.8c0.5,0.3,1,0.9,2.1,0.9c0.2,0,0.4,0,0.6-0.1
	c0.5-0.2,1.3-0.7,1.7-1c1-0.7,1.6-1.1,2.6-1.1c0.6,0,1.1,0.4,1.7,0.4c0.9,0,1.7-0.7,2.8-1.4c1-0.6,2.7-1.7,2.7-1.7
	C16,11.8,15.8,11.3,14.9,11.3"/>
<path class="st0" d="M16.9,9.2c-0.9,0.6-1.6,1.1-2.5,1.1c-0.7,0-0.9-0.3-1.7-0.3c-0.9,0-1.6,0.6-2.8,1.4c-0.9,0.6-1.6,1.1-2.6,1.1
	c-0.7,0-0.9-0.3-1.7-0.3c-0.5,0-0.9,0.1-1.4,0.4c-0.2,0.2-1.1,0.7-1.1,0.8c-0.8,0.5-1.5,1-2.2,1.1c0.5,0.3,1,0.9,2.1,0.9
	c0.5,0,0.9-0.2,1.4-0.4c0.1-0.1,0.9-0.6,1-0.6c1-0.7,1.6-1.1,2.6-1.1c0.6,0,1.1,0.4,1.7,0.4c0.9,0,1.7-0.7,2.8-1.4
	c1-0.7,1.6-1.1,2.6-1.1c0.6,0,1.1,0.4,1.7,0.4c0.4,0,0.8-0.1,1.2-0.4l1.1-2.8C18.3,8.3,17.7,8.6,16.9,9.2"/>
</svg>
