<?xml version="1.0" encoding="utf-8"?>
<!-- Generator: Adobe Illustrator 23.0.0, SVG Export Plug-In . SVG Version: 6.00 Build 0)  -->
<svg version="1.1" id="Capa_1" xmlns="http://www.w3.org/2000/svg" xmlns:xlink="http://www.w3.org/1999/xlink" x="0px" y="0px"
	 viewBox="0 0 63 8" style="enable-background:new 0 0 63 8;" xml:space="preserve">
<style type="text/css">
	.st0{fill:#FFFFFF;}
</style>
<polygon class="st0" points="10.8,2.2 13.1,2.2 14,5.1 14.9,2.2 17.2,2.2 17.2,7 15.7,7 15.7,3.3 14.6,7 13.3,7 12.2,3.3 12.2,7 
	10.8,7 "/>
<rect x="18.3" y="2.2" class="st0" width="1.8" height="4.8"/>
<polygon class="st0" points="21,2.2 26.3,2.2 26.3,3.4 24.5,3.4 24.5,7 22.7,7 22.7,3.4 21,3.4 "/>
<path class="st0" d="M26.8,5.4l1.7-0.1c0,0.2,0.1,0.4,0.2,0.5c0.2,0.2,0.4,0.3,0.8,0.3c0.2,0,0.4,0,0.6-0.1c0.1-0.1,0.2-0.2,0.2-0.3
	c0-0.1-0.1-0.2-0.2-0.3c-0.1-0.1-0.4-0.2-0.9-0.3c-0.8-0.1-1.3-0.3-1.6-0.6C27.1,4.2,27,3.9,27,3.5c0-0.2,0.1-0.5,0.3-0.7
	c0.2-0.2,0.4-0.4,0.8-0.5c0.3-0.1,0.8-0.2,1.4-0.2c0.7,0,1.3,0.1,1.7,0.3c0.4,0.2,0.6,0.6,0.7,1.1l-1.7,0.1c0-0.2-0.1-0.4-0.3-0.5
	C29.7,3,29.5,3,29.2,3c-0.2,0-0.4,0-0.5,0.1c-0.1,0.1-0.2,0.2-0.2,0.3c0,0.1,0,0.1,0.1,0.2c0.1,0.1,0.3,0.1,0.6,0.2
	C30.1,3.9,30.6,4,31,4.2c0.3,0.1,0.6,0.3,0.7,0.5c0.2,0.2,0.2,0.4,0.2,0.7c0,0.3-0.1,0.6-0.3,0.9c-0.2,0.3-0.5,0.5-0.8,0.6
	C30.4,7,30,7.1,29.4,7.1c-1,0-1.6-0.2-2-0.5C27,6.3,26.8,5.9,26.8,5.4"/>
<path class="st0" d="M36.5,2.2h1.7V5c0,0.3-0.1,0.6-0.2,0.8c-0.1,0.3-0.3,0.5-0.5,0.7c-0.2,0.2-0.5,0.3-0.7,0.4
	c-0.3,0.1-0.7,0.2-1.2,0.2c-0.3,0-0.6,0-0.9,0c-0.3,0-0.6-0.1-0.8-0.2c-0.2-0.1-0.4-0.2-0.6-0.4C33.2,6.2,33,6,33,5.9
	c-0.1-0.3-0.2-0.6-0.2-0.8V2.2h1.7v2.9c0,0.3,0.1,0.5,0.3,0.6c0.2,0.1,0.4,0.2,0.7,0.2c0.3,0,0.5-0.1,0.7-0.2
	c0.2-0.1,0.3-0.3,0.3-0.6V2.2z"/>
<path class="st0" d="M41.2,6L41.2,6h0.9c0.3,0,0.5,0,0.6-0.1c0.1-0.1,0.2-0.2,0.2-0.4c0-0.1-0.1-0.3-0.2-0.3C42.6,5,42.4,5,42.1,5
	h-0.9V6z M41.2,4.1L41.2,4.1h0.8c0.3,0,0.5,0,0.6-0.1c0.1-0.1,0.2-0.2,0.2-0.3c0-0.1-0.1-0.2-0.2-0.3c-0.1-0.1-0.3-0.1-0.6-0.1h-0.8
	V4.1z M39.4,2.2h3.3c0.5,0,1,0.1,1.3,0.3c0.3,0.2,0.4,0.5,0.4,0.9c0,0.3-0.1,0.5-0.3,0.7c-0.1,0.1-0.3,0.2-0.6,0.3
	c0.4,0.1,0.7,0.2,0.9,0.4c0.2,0.2,0.3,0.5,0.3,0.8c0,0.2-0.1,0.5-0.2,0.7c-0.1,0.2-0.3,0.4-0.6,0.5c-0.1,0.1-0.4,0.1-0.7,0.2
	C42.8,7,42.6,7,42.4,7h-3V2.2z"/>
<rect x="45.6" y="2.2" class="st0" width="1.8" height="4.8"/>
<path class="st0" d="M48.3,5.4L50,5.3c0,0.2,0.1,0.4,0.2,0.5C50.4,6,50.7,6.1,51,6.1c0.2,0,0.4,0,0.6-0.1c0.1-0.1,0.2-0.2,0.2-0.3
	c0-0.1-0.1-0.2-0.2-0.3c-0.1-0.1-0.4-0.2-0.9-0.3c-0.8-0.1-1.3-0.3-1.6-0.6c-0.3-0.2-0.5-0.6-0.5-0.9c0-0.2,0.1-0.5,0.3-0.7
	c0.2-0.2,0.4-0.4,0.8-0.5c0.3-0.1,0.8-0.2,1.4-0.2c0.7,0,1.3,0.1,1.7,0.3C53,2.7,53.2,3,53.3,3.5l-1.7,0.1c0-0.2-0.1-0.4-0.3-0.5
	C51.2,3,51,3,50.8,3c-0.2,0-0.4,0-0.5,0.1c-0.1,0.1-0.2,0.2-0.2,0.3c0,0.1,0,0.1,0.1,0.2c0.1,0.1,0.3,0.1,0.6,0.2
	c0.8,0.1,1.3,0.3,1.6,0.4c0.3,0.1,0.6,0.3,0.7,0.5c0.2,0.2,0.2,0.4,0.2,0.7c0,0.3-0.1,0.6-0.3,0.9c-0.2,0.3-0.5,0.5-0.8,0.6
	C52,7,51.5,7.1,51,7.1c-1,0-1.6-0.2-2-0.5C48.6,6.3,48.4,5.9,48.3,5.4"/>
<polygon class="st0" points="54.4,2.2 56.1,2.2 56.1,3.9 58,3.9 58,2.2 59.8,2.2 59.8,7 58,7 58,5 56.1,5 56.1,7 54.4,7 "/>
<rect x="61" y="2.2" class="st0" width="1.8" height="4.8"/>
<path class="st0" d="M0.2,8h3c0.1,0,0.7-1.2,0.8-1.3C4,6.5,4.2,6.3,4.3,6.1C4.4,6,4.7,5.5,4.7,5.4h-3C1.7,5.4,1,6.6,1,6.7
	C0.9,6.9,0.2,8,0.2,8 M6.2,8h3c0-0.1-0.6-1.2-0.7-1.3C8.4,6.6,7.8,5.4,7.7,5.4h-3c0,0.1,0.3,0.6,0.4,0.7c0.1,0.2,0.3,0.4,0.4,0.6
	C5.5,6.9,6.2,8,6.2,8z M3.2,2.8c0,0,1.5,2.6,1.5,2.6c0,0,1.5-2.6,1.5-2.6c0,0-0.7-1.2-0.7-1.3C5.4,1.3,5.2,1,5.1,0.8
	C5,0.7,4.7,0.2,4.7,0.1h0C4.7,0.2,4,1.3,4,1.4C3.9,1.5,3.2,2.8,3.2,2.8z"/>
</svg>
