<?xml version="1.0" encoding="utf-8"?>
<!-- Generator: Adobe Illustrator 24.0.0, SVG Export Plug-In . SVG Version: 6.00 Build 0)  -->
<svg version="1.1" id="Capa_1" xmlns="http://www.w3.org/2000/svg" xmlns:xlink="http://www.w3.org/1999/xlink" x="0px" y="0px"
	 viewBox="0 0 85.3 10.8" style="enable-background:new 0 0 85.3 10.8;" xml:space="preserve">
<style type="text/css">
	.st0{fill:#FFFFFF;}
</style>
<rect x="68.1" y="0.6" class="st0" width="2.8" height="9.4"/>
<path class="st0" d="M9.3,5.3L9.3,5.3H3.7V2.8h5.6c0.7,0,1.3,0.6,1.3,1.3C10.6,4.7,10,5.3,9.3,5.3 M10.1,0.6H0.8V10h2.9V7.4h6.3
	c1.8,0,3.2-1.4,3.2-3.2V3.8C13.3,2.1,11.9,0.6,10.1,0.6z"/>
<path class="st0" d="M56.8,5.3L56.8,5.3V2.8h5.6c0.7,0,1.3,0.6,1.3,1.3c0,0.7-0.6,1.3-1.3,1.3H56.8z M64.9,6.9
	c0.9-0.6,1.5-1.6,1.5-2.7V3.8c0-1.8-1.5-3.2-3.2-3.2h-9.3V10h2.9V7.4h5.1l1.5,2.6h3.3L64.9,6.9z"/>
<path class="st0" d="M82,4.2h-6.3c-0.4,0-0.7-0.3-0.7-0.7c0-0.4,0.3-0.7,0.7-0.7h8.1V0.6h-8.6c-1.6,0-2.9,1.3-2.9,2.9
	c0,1.6,1.3,2.9,2.9,2.9h6.3c0.4,0,0.7,0.3,0.7,0.7c0,0.4-0.3,0.7-0.7,0.7h-8.8V10H82c1.6,0,2.9-1.3,2.9-2.9
	C84.9,5.5,83.6,4.2,82,4.2"/>
<path class="st0" d="M24.7,2.3l-0.8,2.2L28,5.1V3.5c0-1.6-1.3-2.8-2.8-2.8h-3.6l0.7,2.5L24.7,2.3z"/>
<path class="st0" d="M23.9,6.2l0.8,2.2l-2.4-0.9L21.6,10h3.6c1.6,0,2.8-1.3,2.8-2.8V5.6L23.9,6.2z"/>
<path class="st0" d="M14.7,3.5v1.6l4.1-0.6L18,2.3l2.4,0.9l0.7-2.5h-3.6C15.9,0.7,14.7,1.9,14.7,3.5"/>
<path class="st0" d="M18,8.4l0.8-2.2l-4.1-0.6v1.6c0,1.6,1.3,2.8,2.8,2.8h3.6l-0.7-2.5L18,8.4z"/>
<path class="st0" d="M32.9,7.8c-0.3,0-0.5-0.2-0.5-0.5V0.6h-2.8V8c0,1.1,0.9,2,2,2h7V7.8H32.9z"/>
<path class="st0" d="M49.6,5.3L49.6,5.3h-6.9V3.8c0-0.6,0.4-1,1-1h2.4h2.4c0.6,0,1,0.5,1,1V5.3z M49.2,0.6h-6
	c-1.8,0-3.2,1.4-3.2,3.2V10h2.8V7.4h6.9V10h2.8V3.8C52.4,2.1,51,0.6,49.2,0.6z"/>
</svg>
