<?xml version="1.0" encoding="utf-8"?>
<!-- Generator: Adobe Illustrator 24.0.0, SVG Export Plug-In . SVG Version: 6.00 Build 0)  -->
<svg version="1.1" id="Capa_1" xmlns="http://www.w3.org/2000/svg" xmlns:xlink="http://www.w3.org/1999/xlink" x="0px" y="0px"
	 viewBox="0 0 85.3 13.5" style="enable-background:new 0 0 85.3 13.5;" xml:space="preserve">
<style type="text/css">
	.st0{fill-rule:evenodd;clip-rule:evenodd;fill:#FFFFFF;}
	.st1{fill:#FFFFFF;}
	.st2{font-family:'ArialMT';}
	.st3{font-size:0.7958px;}
</style>
<path class="st0" d="M77.7-0.3c0.5,0,1,0,1.5,0c0.5,0.2,1.4,0.1,1.5,0.6c0.1,0.5-0.7,1.2-1,1.5c-0.5,0.5-0.9,0.9-1.3,1.2
	c-0.2-0.1-0.3-0.4-0.6-0.5c-0.3-0.2-0.8-0.2-1.1-0.3c-2.3-0.2-4,0.8-5.5,1.5c-1.2,0.6-2.5,1.4-3.7,2.3c-1.1,0.8-2.4,1.5-3.8,2.1
	c-1.4,0.7-2.9,1.4-4.5,1.5c-1.2,0.1-2.5-0.3-2.5-1.3c0-0.6,0.8-1.2,1.1-1.6c0.2-0.2,0.5-0.5,0.7-0.7c0.2-0.2,0.4-0.6,0.7-0.5
	C59.2,5.7,59,5.9,59,6.3c0.1,0.6,1,0.9,1.7,1c1.9,0.1,3.5-0.5,4.9-1.2c1.4-0.7,2.5-1.6,3.7-2.5C71.8,1.7,74.3,0.2,77.7-0.3"/>
<path class="st0" d="M46.6,13c-0.5,0-0.9,0-1.4,0c-0.5-0.1-1-0.2-1.5-0.4c-0.4-0.1-1.1-0.4-1.1-0.8c0-0.3,0.5-0.7,0.8-0.8
	c0.3-0.2,0.9-0.4,1.3-0.4c0.5,0.1,0.9,0.8,1.4,0.9c0.2,0.1,0.4,0.1,0.5,0.1C49,12,50.2,10.2,51.1,9c-0.7,0.4-2.2,0.3-2.1-0.9
	c-0.6,0.3-1.6,1.2-2.5,0.9c-0.3-0.1-0.4-0.4-0.5-0.7c-0.3,0.1-0.4,0.4-0.6,0.5c-0.7,0.5-1.5,0.8-2.4,1.1c-0.1,0.3,0.3,0.4,0.3,0.7
	c-0.5,0.6-1.5,1.1-2.6,0.9c-0.2-0.2,0-0.7,0-0.9c-0.1-0.4-0.6-0.8-1.1-1.1c-1.3-0.8-2.9-1.8-4.6-2c-1.7-0.1-3.3,1.5-2.9,3.2
	c-0.3,0.3-0.9,0.4-1.5,0.5c-0.6,0.1-1.3,0.4-1.8,0.1c-0.9-0.6,0.3-1.5,0.7-1.9c1.4-1.3,2.6-2.4,4-3.5c1.4-1.1,2.7-2.3,4.3-3.2
	c0.6-0.3,1.2-0.7,1.8-0.7c0.3,0,1,0.2,1.1,0.5c0,0.3-0.8,0.6-1.1,0.7c-0.5,0.2-0.8,0.5-1.1,0.7c-0.8,0.5-1.5,1-2,1.6
	c0.4,0.3,1,0.2,1.5,0.1c1.5-0.3,3-0.8,3.9-1.6c0.2-0.2,0.6-0.4,0.7-0.8C43.1,2.1,42,1.7,41,1.6c-1.7-0.1-3.2,0.2-4.7,0.6
	c-1.9,0.5-3.3,1.5-4.1,2.8c-0.1,0.2-0.4,0.8-0.9,0.7c-0.5-0.1-0.2-1.4,0-1.9C31.8,2.9,33,2.4,34,2c1.8-0.7,4-1.2,6.6-1.2
	c1.9,0,4.1,0.1,4.3,1.6c0.2,1.2-0.8,1.9-1.4,2.4c-1.1,0.9-2.5,1.3-4.1,1.7C38.6,6.6,37.7,6.7,37,7c0.1,0.3,0.6,0.4,0.9,0.5
	c1.1,0.3,2.3,0.7,3.2,1.1c0.3-0.2,0.3-0.6,0.4-0.8c0.7-1.6,2.8-3.9,5-3.9c0.4,0,0.8,0,1.1,0.3c0.1,0.2,0.2,0.6,0.3,0.9
	c0.1,0.3,0.5,0.4,0.5,0.7c0,0.3-0.5,0.5-0.7,0.7c-0.2,0.3-0.3,0.5-0.4,0.9c0.6,0.2,1-0.2,1.4-0.5c1.1-0.8,2-2.5,3.3-2.8
	c0.5-0.1,1.2,0,1.2,0.4c0.1,0.5-0.9,0.8-1.2,1c-0.6,0.5-1.1,1.2-1.1,2c0.5,0.1,0.9-0.3,1.3-0.6c0.7-0.6,1.3-1.3,1.9-2.1
	c0.3-0.4,0.6-0.9,0.9-1.1c0.5-0.3,2.3-0.6,2.3,0.2c0,0.5-1,0.8-1.4,1.1c-0.8,0.5-1.5,1.4-2.2,2.2C52,9.6,50.5,12.7,46.6,13 M44,6.4
	c-0.4,0.4-1.8,2-0.1,1.9c0.6-0.1,1.2-0.4,1.6-0.8c0.4-0.4,1.9-2.4,0.3-2.2C45,5.3,44.5,5.9,44,6.4z"/>
<path class="st0" d="M0.9,9.3c0-0.2,0-0.4,0-0.5c0.5-0.6,0.9-1.6,1.9-1.6C2.6,8.7,3.8,9.2,5,9.7c1.4,0.6,2.6,0.9,4.3,0.8
	c1-0.1,2.8-0.6,2.9-1.4c0.1-0.5-0.4-0.8-0.7-1c-0.6-0.3-1.4-0.6-2.2-0.9C8.5,7,7.5,6.7,7.2,6.2c-0.4-0.7,0.1-1.6,0.6-2
	c0.8-0.7,2.6-1,3.9-1.3c2.2-0.5,4.6-0.7,6.9-0.4c0.7,0.1,1.4,0.2,1.8,0.6c-0.1,0.5-0.6,0.9-0.9,1.2c-0.4,0.3-0.8,0.7-1.4,0.5
	c-0.1-0.3,0.2-0.4,0.1-0.8c-0.1-0.6-1.4-0.6-2.2-0.7c-2.2-0.1-3.5,0.1-5.1,0.7C10.2,4.2,9.1,4.6,9,5.2C9,5.6,9.7,5.9,10.1,6
	c1.6,0.6,3.1,0.8,4,1.9c0.7-0.7,1.5-1.3,2.7-1.7c0.8-0.3,3.1-0.8,3.4,0.3c0.1,0.6-0.4,1.1-0.7,1.4c-0.8,0.6-2.3,0.9-3.3,0.6
	c-0.6,0.9,0.1,1.4,1.2,1.2c1.5-0.1,2.6-1.2,3.8-2.2c0.6-0.4,1.1-0.9,1.8-1.2c0.6-0.4,1.4-0.8,2.3-0.7c0.5,0,1.1,0.3,1.2,0.7
	c0,0.1-0.1,0.3,0,0.5C26.4,7,26.7,7,26.7,7.4c0,0.6-0.8,0.6-0.8,1.2c0,0.3,0.4,0.5,0.7,0.5c0.6,0,1.3-0.5,1.8-0.8
	C29,8,29.5,7.2,30,7.5c-0.1,0.6-0.7,1.2-1.3,1.6c-0.6,0.5-1.3,0.9-2,1.1c-0.5,0.1-1.1,0.2-1.5,0c-0.3-0.1-0.3-0.4-0.5-0.7
	c-0.9,0.5-2,1.8-3.5,1.7c-0.7,0-1.2-0.6-1.2-1.4c-0.3,0.1-0.5,0.4-0.9,0.6c-1.5,0.8-4.4,0.7-5.6-0.4c-1.1,0.7-2.8,1.5-4.8,1.6
	C5.7,11.7,2,10.9,0.9,9.3 M16.7,7.5c0.6,0.3,2,0.2,1.9-0.7C17.9,6.5,16.8,6.8,16.7,7.5z M22.1,7.9c-0.3,0.3-1,1.3-0.5,1.8
	c0.2,0.2,0.8,0.2,1.2,0C23.2,9.5,23.6,9,24,8.6C24.4,8.2,25,7.7,24.8,7C24,6.4,22.7,7.2,22.1,7.9z"/>
<path class="st0" d="M84.3,8.2L84.3,8.2L84.3,8.2L84.3,8.2L84.3,8.2L84.3,8.2L84.3,8.2L84.3,8.2L84.3,8.2L84.3,8.2L84.3,8.2
	L84.3,8.2L84.3,8.2L84.3,8.2L84.3,8.2L84.3,8.2L84.3,8.2L84.3,8.2L84.3,8.2v0.1v0v0v0v0v0v0v0v0v0v0v0v0v0v0v0v0v0v0v0v0v0v0v0v0v0
	v0v0v0v0v0v0v0v0v0v0v0v0v0v0v0v0v0v0v0v0c-0.5,0.6-0.8,1.2-1.3,1.8c-0.5,0.6-1,1.2-1.6,1.5c-0.8,0.3-1.8,0.4-2.8,0.5
	c-1.9,0.2-4.3,0.3-6.4,0.3c-1.1,0-2.2,0-3.3-0.1c-1.7-0.3-2.6-1.7-1.7-3.2c0.9-1.6,3.1-2.2,5.4-2.7c0.8-0.2,1.8-0.2,1.8-0.9
	c0-0.5-0.9-0.6-1.5-0.6c-2,0-3.3,0.9-4.6,1.7c-1.3,0.8-2.5,1.7-3.8,2.5c-1.5,0.9-2.6,1.5-4.1,2.2c-1.4,0.6-3.1,1.5-5,1.3
	c-0.9-0.1-1.6-0.5-1.8-1.2c-0.2-1,0.6-1.6,1.1-2.1c0.5-0.5,0.8-1,1.4-1.3c0.1,1.3,0.8,1.8,2.1,1.8c1.8,0.1,3.5-0.7,4.8-1.3
	c2.8-1.3,5-3.1,7.7-4.5c1.3-0.7,3-1.5,4.5-1.6c0.8-0.1,2.2,0.1,2.3,0.6c0.1,0.4-0.5,0.8-0.7,1.1c-0.3,0.4-0.6,0.7-0.9,1
	c-1.3,1.4-2.2,2.1-4.3,2.6c-0.8,0.2-2,0.4-2,1.3c0,1,2.1,0.8,3.4,0.9c3.6,0.1,7.2-0.1,9.5-1.2C83.2,8.7,83.7,8.2,84.3,8.2"/>
<text transform="matrix(1 0 0 1 82.8352 12.0073)" class="st1 st2 st3">®</text>
</svg>
