<svg xmlns="http://www.w3.org/2000/svg" viewBox="0 0 850.39 177.3"><defs><style>.cls-1{fill:#fff;}</style></defs><title>VOLVO PENTA</title><g id="Layer_2" data-name="Layer 2"><g id="Volvo_Penta" data-name="Volvo Penta"><polygon class="cls-1" points="76.08 11.04 88.4 11.04 67.81 49.14 46.93 11.04 61.91 11.04 61.9 1.54 0 1.54 0 11.05 14.16 11.05 42.94 63.28 76.34 63.28 104.57 11.04 118.74 11.04 118.75 1.54 76.08 1.54 76.08 11.04"/><polygon class="cls-1" points="625.13 11.04 637.45 11.04 616.85 49.14 595.98 11.04 610.95 11.04 610.95 1.54 549.05 1.54 549.05 11.05 563.21 11.05 591.99 63.28 625.39 63.28 653.61 11.04 667.79 11.04 667.79 1.54 625.13 1.54 625.13 11.04"/><path class="cls-1" d="M394.79,53.7h-14.4v9.59h85.67V34.7h-9.41A19.66,19.66,0,0,1,445.93,52c-2.28,1.14-4.43,1.73-9.51,1.73H423.26V11h14.21V1.54H380.41V11h14.38V53.7Z"/><path class="cls-1" d="M242.41,55.1c-10.5,0-15.29-11.48-15.3-23,0-11.9,5.51-22.39,15.32-22.39s15.15,10.49,15.15,22.39c0,11.23-4.43,23-15.23,23h.06Zm.06,9.83c29.39,0,43.87-14.51,43.87-32.67,0-18-15.38-32.26-44-32.26s-43.88,14.31-43.88,32.25c0,18.17,14.66,32.68,44.05,32.68Z"/><path class="cls-1" d="M791.79,55.1c-10.52,0-15.3-11.48-15.3-23,0-11.9,5.51-22.39,15.32-22.39S807,20.23,807,32.13c0,11.23-4.42,23-15.25,23Zm0,9.83c29.36,0,43.87-14.51,43.87-32.67,0-17.94-15.4-32.25-44-32.25S747.8,14.31,747.8,32.25c0,18.17,14.64,32.68,44,32.68Z"/><path class="cls-1" d="M284.84,139.26V115.55H199.48V125H213.3v42.69H199.48v9.57h85.36V149H275.4v2.27c0,9.15-6.23,16.41-14.27,16.41H241.78V149h19.35v-9.09H241.78V125h19.9c6.86,0,12.39,5.1,13.72,14.24h9.44Z"/><path class="cls-1" d="M629,125a14.26,14.26,0,0,1,14.41,14.24h9.45V115.55H567v23.71h9.44A14.32,14.32,0,0,1,590.93,125h4.79v42.69H581.84v9.58H638.1v-9.58H624.2V125H629Z"/><polygon class="cls-1" points="411.11 177.29 411.11 167.71 397.17 167.71 397.17 139.26 440.12 177.29 463.9 177.29 463.9 125.02 478.01 125.02 478.01 115.55 435.39 115.55 435.39 125.02 449.45 125.02 449.45 146.23 413.94 115.55 368.67 115.55 368.67 125.02 382.71 125.02 382.71 167.71 368.67 167.71 368.67 177.29 411.11 177.29"/><path class="cls-1" d="M59.08,144.2V125h8.43a13.29,13.29,0,0,1,9.55,3.64,8.6,8.6,0,0,1,2.45,6.08,8.71,8.71,0,0,1-2.73,6.36,13.64,13.64,0,0,1-9.27,3.1H59.08Zm49.08-9.36a17.13,17.13,0,0,0-4.9-12.07c-4.31-4.44-11.2-7.23-18.94-7.23H16.44V125H30.59V167.7H16.44v9.58H73.52V167.7H59.08V153.59H84.32c7.43,0,14.06-2.15,18.39-6.16A17.15,17.15,0,0,0,108.16,134.84Z"/><path class="cls-1" d="M745.92,167.71H731.74v9.58h42.65c0-2.19,0-9.58,0-9.58l-12.3,0c.28-.55,2.28-4.25,5-9.16h31.43l5,9.13H788.6v9.58h61.79v-9.58H836.28l-28.77-52.16H774.18l-28.26,52.15Zm36.75-38,10.46,19.06H772.35Z"/></g></g></svg>