<?xml version="1.0" encoding="utf-8"?>
<!-- Generator: Adobe Illustrator 24.0.0, SVG Export Plug-In . SVG Version: 6.00 Build 0)  -->
<svg version="1.1" id="Capa_1" xmlns="http://www.w3.org/2000/svg" xmlns:xlink="http://www.w3.org/1999/xlink" x="0px" y="0px"
	 viewBox="0 0 85.3 9" style="enable-background:new 0 0 85.3 9;" xml:space="preserve">
<style type="text/css">
	.st0{fill-rule:evenodd;clip-rule:evenodd;fill:#FFFFFF;}
</style>
<path class="st0" d="M3.3,6.2l0.1-5.5l-2,0c-0.8,0-0.5,0.1-0.5,2.8c0,1.2,0.2,3,0.1,4.2c0,0.4-0.1,0.5,0.4,0.5l2.2,0
	c0.5,0,0.5-0.2,0.7-0.5l3.7-4.5c0.3-0.3,0.3-0.3,0.4-0.3L8.3,8.1c0.6,0.1,1.5,0,2.1,0c1.1,0,0.9-0.1,1.5-0.7l2.6-2.8
	c0.2-0.2,0.3-0.3,0.5-0.6L17,1.8c0.2-0.3,0.9-0.9,0.9-1.2l-2,0c-0.4,0-0.5,0.3-0.8,0.6c-0.2,0.2-0.4,0.5-0.6,0.7l-3.1,3.6
	c-0.2,0.3-0.4,0.6-0.7,0.7c-0.2-0.4,0.1-4,0.1-4.9c0-0.8,0.1-0.6-2.1-0.6C8,0.6,8,0.6,7.7,1.1C7.2,1.7,6.7,2.2,6.2,2.8L4.1,5.4
	C3.8,5.7,3.5,6.2,3.3,6.2"/>
<path class="st0" d="M57.1,8.1l2.3,0c0.1-0.1,0,0,0.1-0.1l2.1-5c0.1-0.3,0-0.2,0.2-0.3C62,3,62,4.9,62,5.4l0.1,2.4
	c0,0.1,0,0.1,0,0.2c0.1,0.4,0.8,0.2,1.5,0.2c1.4,0,0.7,0.2,2.8-1.9c0.5-0.5,1.1-1.2,1.5-1.6c0.3-0.3,1.3-1.5,1.7-1.6
	c-0.1,0.6-2.4,5-2.4,5.2l2.3,0l3.4-7.5c-0.5-0.1-3.2-0.1-3.4,0.1c-0.3,0.2-5.2,5.5-5.3,5.5C64.1,6.1,64,2,64,1.4c0-0.1,0-0.3,0-0.3
	c0-0.1,0-0.1,0-0.2c0-0.1,0-0.1-0.1-0.1c-0.3-0.2-2.6-0.1-3.2-0.1c-0.2,0-0.7,1.3-0.9,1.8c-0.3,0.6-0.6,1.3-0.9,1.9
	C58.6,4.8,57.3,7.6,57.1,8.1"/>
<path class="st0" d="M73.9,3.7c0,1.2,1.2,1.2,2.3,1.3c1.4,0.2,4.4-0.2,4.7,0.3c0.1,0.7-0.4,1.1-1,1.3c-1.2,0.3-5.3,0.1-7.1,0.2
	l-0.6,1.3l6.2,0c1.9,0,3.4-0.3,4.4-1.5c0.3-0.4,1-1.5,0.6-2.1c-0.4-0.8-1.9-0.8-2.9-0.8l-2.6,0c-0.5,0-1.7,0-1.4-0.8
	c0.2-0.8,1.3-0.9,2.2-1c1.9-0.1,3.9,0,5.8,0l0.5-1.3l-5.4,0c-1.1,0-2.8,0.1-3.8,0.6C75,1.6,73.9,2.5,73.9,3.7"/>
<path class="st0" d="M44,8.1l2.4,0l1.5-1.6c0.3-0.3,0.4-0.2,0.9-0.2l4.1,0c0.1,0.5,0.2,1.2,0.2,1.7l2.6,0c0-0.7-0.1-0.5-0.1-1
	l-1-5.9c-0.2-0.8,0.3-0.6-2.3-0.6c-0.5,0-0.8,0.4-1.2,0.8c-0.8,0.8-2.1,1.9-3,2.8l-3.5,3.3C44.3,7.8,44.1,7.7,44,8.1 M49.7,5
	c0-0.3,0.4-0.5,0.6-0.7c0.3-0.3,1.9-1.9,2.2-2c0.1,0.2,0.4,2.6,0.3,2.7C52.6,5.1,49.8,5,49.7,5z"/>
<path class="st0" d="M29.9,8.1c0.1-0.3,0.4-0.9,0.4-1.2c-1,0-2.4,0.1-3.3,0c-0.5-0.1-0.9-0.1-1.2-0.4C25.4,5.9,26.5,4,27,3l0.8-1.7
	C27.9,1.1,28,1,28,0.6l-2.2,0c-0.2,0.3-0.2,0.4-0.3,0.7c-0.5,1-2.1,4.2-2.1,5.1c0,1.2,1.4,1.6,2.5,1.7C26.8,8.1,29.1,8.3,29.9,8.1"
	/>
<path class="st0" d="M34.6,8.1l3.6,0c0,0,0-0.1,0-0.1c0,0.1,0,0,0.1-0.2c0.2-0.3,0.3-0.6,0.3-0.9l-2.8,0c-0.7,0-1.7,0-1.8-0.7
	c-0.1-0.4,0.1-0.7,0.2-1l1.7-3.6c0.2-0.2,0.4-0.6,0.4-0.9l-2.3,0c-0.3,0.5-0.7,1.5-1,2.1l-1,2.2c-0.3,0.7-0.8,1.8,0,2.5
	C32.6,7.9,33.6,8.1,34.6,8.1"/>
<path class="st0" d="M17.5,8.1l1.7,0c0.3-0.4,2.3-5.2,2.9-6.3l0.1-0.2c0.1-0.3,0.4-0.8,0.4-1.1l-1.8,0c-0.8,0-0.6,0.1-1.3,1.7
	c-0.3,0.7-0.6,1.4-1,2.1l-1.4,3.1C16.8,8.2,16.6,8.1,17.5,8.1"/>
<path class="st0" d="M39.7,8.1l2.4,0c0.3-0.3,1.3-3,1.5-3.2c0.2-0.3,0.1-0.1,0.2-0.5L45,1.7c0.2-0.3,0.4-0.7,0.3-1l-2.3,0l-1.7,3.7
	C41.1,4.8,39.6,7.9,39.7,8.1"/>
</svg>
