<?xml version="1.0" encoding="utf-8"?>
<!-- Generator: Adobe Illustrator 23.0.0, SVG Export Plug-In . SVG Version: 6.00 Build 0)  -->
<svg version="1.1" id="Capa_1" xmlns="http://www.w3.org/2000/svg" xmlns:xlink="http://www.w3.org/1999/xlink" x="0px" y="0px"
	 viewBox="0 0 31 10" style="enable-background:new 0 0 31 10;" xml:space="preserve">
<style type="text/css">
	.st0{fill:#FFFFFF;}
	.st1{fill-rule:evenodd;clip-rule:evenodd;fill:#1F345F;}
</style>
<path class="st0" d="M8.4,2.2C7.6,1.5,6.6,1,5.5,1C4.4,1,3.4,1.5,2.6,2.2C1.9,2.9,1.5,4,1.5,5.1c0,1.1,0.5,2.1,1.2,2.9
	c0.7,0.7,1.7,1.2,2.9,1.2c1.1,0,2.1-0.5,2.9-1.2c0.7-0.7,1.2-1.7,1.2-2.9C9.5,4,9.1,2.9,8.4,2.2 M5.5,0.6c1.2,0,2.4,0.5,3.2,1.3
	C9.5,2.7,10,3.8,10,5.1c0,1.2-0.5,2.4-1.3,3.2C7.9,9.1,6.7,9.6,5.5,9.6c-1.2,0-2.4-0.5-3.2-1.3C1.5,7.4,1,6.3,1,5.1
	c0-1.2,0.5-2.4,1.3-3.2C3.1,1.1,4.3,0.6,5.5,0.6z"/>
<path class="st0" d="M6.7,1.6h20.1c1.9,0,3.4,1.5,3.4,3.4c0,1.9-1.5,3.4-3.4,3.4H6.7V1.6z"/>
<path class="st1" d="M8.4,2.2C7.6,1.5,6.6,1,5.5,1C4.4,1,3.4,1.5,2.6,2.2C1.9,2.9,1.5,4,1.5,5.1c0,1.1,0.5,2.1,1.2,2.9
	c0.7,0.7,1.7,1.2,2.9,1.2c1.1,0,2.1-0.5,2.9-1.2c0.7-0.7,1.2-1.7,1.2-2.9C9.5,4,9.1,2.9,8.4,2.2"/>
<path class="st1" d="M26.1,4.1h0.4c0.1,0,0.2,0.1,0.2,0.3c0,0.2-0.1,0.3-0.3,0.3h-0.4V4.1z M26.1,3.3h0.4c0.1,0,0.2,0,0.2,0.2
	c0,0.2-0.1,0.2-0.2,0.2h-0.4V3.3z M25.7,3v2h0.9c0.3,0,0.7-0.1,0.7-0.6c0-0.2-0.1-0.4-0.3-0.5c0.1-0.1,0.2-0.2,0.2-0.4
	c0-0.4-0.3-0.6-0.6-0.6H25.7z M25.3,3h-0.4v1.3c0,0.3-0.1,0.4-0.4,0.4c-0.2,0-0.4-0.1-0.4-0.4V3h-0.4v1.3c0,0.5,0.3,0.8,0.8,0.8
	c0.5,0,0.8-0.3,0.8-0.8V3z M22.7,4.6V3h-0.4v2h1.3V4.6H22.7z M21.8,4.5c-0.3,0.2-0.5,0.2-0.5,0.2c-0.3,0-0.4-0.3-0.4-0.7
	c0-0.4,0-0.7,0.4-0.7c0,0,0.2,0,0.5,0.2L22,3.1c-0.3-0.2-0.6-0.2-0.7-0.2c-0.7,0-0.8,0.5-0.8,1.1c0,0.5,0.1,1.1,0.8,1.1
	c0,0,0.4,0,0.7-0.2L21.8,4.5z M19.7,3.3V3h-1.5v0.4h0.5V5h0.4V3.3H19.7z M18,5V3h-0.4v0.8h-0.7V3h-0.4v2h0.4V4.1h0.7V5H18z M16,4.5
	c-0.3,0.2-0.5,0.2-0.5,0.2c-0.3,0-0.4-0.3-0.4-0.7c0-0.4,0-0.7,0.4-0.7c0,0,0.2,0,0.5,0.2l0.1-0.4c-0.3-0.2-0.6-0.2-0.7-0.2
	c-0.7,0-0.8,0.5-0.8,1.1c0,0.5,0.1,1.1,0.8,1.1c0,0,0.4,0,0.7-0.2L16,4.5z M13.4,4.3l0.2-0.7l0.2,0.7H13.4z M14.5,5l-0.7-2h-0.3
	l-0.7,2h0.5l0.1-0.4h0.6L14.1,5H14.5z M12.2,4.2L13,3h-0.5L12,3.8L11.5,3H11l0.8,1.3V5h0.4V4.2z"/>
<path class="st0" d="M7.1,5L6.3,4.7c0,0-0.4-0.1-0.4-0.1c0,0-0.1-0.1,0-0.5c0,0,0.1-0.2,0.2-0.3c0,0,0.4-0.5,0-1L5.5,2.1L5.2,1.6
	c0,0-0.2,0.6-0.1,1c0,0,0.2,0.6,0.2,0.6c0,0-0.4,0.7-0.1,1.4c0,0-0.1,0.1-0.6,0.2c0,0-0.1,0-0.6-0.2c0,0,0.1,0.2,0,0.4l0,0l0,0
	c0,0.2,0,0.4,0,0.4c0.5-0.2,0.6-0.2,0.6-0.2c0.4,0,0.6,0.2,0.6,0.2C4.8,6.1,5.2,6.8,5.2,6.8c0,0-0.2,0.6-0.2,0.6
	c-0.1,0.4,0.1,1,0.1,1L5.5,8L6,7.2c0.4-0.5,0-1,0-1c0,0-0.2-0.3-0.2-0.3c-0.1-0.4,0-0.5,0-0.5c0,0,0.4-0.1,0.4-0.1L7.1,5z"/>
<path class="st1" d="M24.2,6.2h0.3c0.1,0,0.1,0.1,0.1,0.2c0,0.1,0,0.2-0.1,0.2h-0.3V6.2z M23.9,5.9v1.3h0.3V6.7h0.2l0.3,0.4h0.3
	l-0.3-0.5c0.2-0.1,0.2-0.2,0.2-0.4c0-0.2-0.1-0.4-0.4-0.4H23.9z M23.4,6.8c0,0.1-0.1,0.2-0.2,0.2C23.1,7,23,6.9,23,6.8V6.3
	c0-0.1,0.1-0.2,0.2-0.2c0.1,0,0.2,0.1,0.2,0.2V6.8z M22.7,6.8c0,0.3,0.2,0.4,0.5,0.4c0.3,0,0.5-0.2,0.5-0.4V6.3
	c0-0.3-0.2-0.4-0.5-0.4c-0.3,0-0.5,0.2-0.5,0.4V6.8z M22.6,6.2V5.9h-0.9v0.2H22v1h0.3v-1H22.6z M21.3,6.8c0,0.1-0.1,0.2-0.2,0.2
	c-0.1,0-0.2-0.1-0.2-0.2V6.3c0-0.1,0.1-0.2,0.2-0.2c0.1,0,0.2,0.1,0.2,0.2V6.8z M20.6,6.8c0,0.3,0.2,0.4,0.5,0.4
	c0.3,0,0.5-0.2,0.5-0.4V6.3c0-0.3-0.2-0.4-0.5-0.4c-0.3,0-0.5,0.2-0.5,0.4V6.8z M20.5,7.2l0-1.3h-0.2l-0.3,0.6l-0.3-0.6h-0.2l0,1.3
	h0.3l0-0.7l0.2,0.4h0.2l0.2-0.4l0,0.7H20.5z M18,7v-1h-0.3v1.3h0.8V7H18z M16.9,6.7L17,6.3l0.1,0.4H16.9z M17.6,7.2l-0.5-1.3h-0.2
	l-0.5,1.3h0.3l0.1-0.2h0.4l0.1,0.2H17.6z M16.2,7.2l0.5-1.3h-0.3L16,6.8l-0.3-0.9h-0.3l0.5,1.3H16.2z M14.9,6.7L15,6.3l0.1,0.4H14.9
	z M15.6,7.2l-0.5-1.3h-0.2l-0.5,1.3h0.3l0.1-0.2h0.4l0.1,0.2H15.6z M14.3,7.2V5.9h-0.3v0.7l-0.5-0.7h-0.2v1.3h0.3V6.5l0.5,0.7H14.3z
	"/>
</svg>
