<?xml version="1.0" encoding="utf-8"?>
<!-- Generator: Adobe Illustrator 24.0.0, SVG Export Plug-In . SVG Version: 6.00 Build 0)  -->
<svg version="1.1" id="Capa_1" xmlns="http://www.w3.org/2000/svg" xmlns:xlink="http://www.w3.org/1999/xlink" x="0px" y="0px"
	 viewBox="0 0 85.3 19.9" style="enable-background:new 0 0 85.3 19.9;" xml:space="preserve">
<style type="text/css">
	.st0{fill-rule:evenodd;clip-rule:evenodd;fill:#FFFFFF;}
</style>
<path class="st0" d="M44.1,6.7c-0.5-0.4-1.1-0.7-1.9-1c-0.7-0.2-1.6-0.3-2.5-0.3c-1,0-1.8,0.1-2.5,0.3c-0.7,0.2-1.3,0.5-1.8,1
	c-0.5,0.4-0.8,0.9-1,1.5C34.1,8.7,34,9.4,34,10.1c0,0.7,0.1,1.3,0.3,1.9c0.2,0.6,0.6,1.1,1,1.5c0.5,0.4,1.1,0.8,1.8,1
	c0.7,0.2,1.6,0.3,2.5,0.3c1,0,1.8-0.1,2.5-0.3c0.7-0.2,1.4-0.6,1.9-1c0.5-0.4,0.9-0.9,1.1-1.5c0.2-0.6,0.4-1.2,0.4-1.9
	c0-0.7-0.1-1.3-0.4-1.9C44.9,7.6,44.6,7.1,44.1,6.7 M42.2,11.1l-0.1,0.9c-0.1,0.2-0.1,0.4-0.2,0.6c-0.1,0.2-0.1,0.2-0.1,0.2
	c-0.2,0.1-0.5,0.2-0.8,0.3c-0.3,0.1-0.8,0.1-1.3,0.1c-0.5,0-0.9-0.1-1.2-0.2c-0.3-0.1-0.5-0.3-0.7-0.6c-0.2-0.3-0.3-0.6-0.4-0.9
	c-0.1-0.4-0.1-0.8-0.1-1.3c0-0.8,0.1-1.4,0.2-1.9c0.1-0.5,0.3-0.7,0.3-0.7c0.2-0.1,0.4-0.2,0.8-0.3c0.4-0.1,0.8-0.1,1.2-0.1
	c0.5,0,0.9,0.1,1.2,0.2c0.3,0.1,0.6,0.3,0.8,0.5c0.2,0.2,0.4,0.6,0.5,0.9c0.1,0.4,0.2,0.8,0.2,1.3L42.2,11.1z"/>
<path class="st0" d="M30.1,13.1h-2.1c0.7-1,5-6.6,5-6.6v-1h-8.8L24,7.1l1.4,0l1.2,0l1.3,0c0,0,0.4,0,0.7,0c-0.8,1-5,6.5-5,6.5v1.1h1
	h2.4h1.4h1.3h0.9H33l0.7-2.1C33.7,12.7,32.1,13.1,30.1,13.1"/>
<path class="st0" d="M82.4,12.6L81,13l-0.8,0.1l-0.9,0.1l-0.8,0c-0.8,0-1.4-0.2-1.8-0.7c-0.4-0.5-0.6-1.3-0.6-2.4
	c0-0.7,0.1-1.3,0.2-1.8c0.1-0.4,0.2-0.6,0.5-0.8c0,0,0.3-0.2,0.3-0.2l0.3-0.1l0.4,0c0,0,0.5,0,0.5,0l0.7,0l0.9,0.1l0.8,0.1l1,0.2
	l0.1-0.4l0.5-1.6l-1.1-0.2l-0.8-0.1l-0.8-0.1c0,0-0.8,0-0.8,0c-0.4,0-0.9,0-1.3,0.1c-0.5,0.1-0.9,0.2-1.4,0.3
	c-0.4,0.1-0.9,0.3-1.3,0.6c-0.4,0.2-0.8,0.5-1.1,0.9c-0.3,0.3-0.5,0.8-0.7,1.2C73,9,72.9,9.5,72.9,10c0,0.7,0.1,1.3,0.3,1.9
	c0.2,0.6,0.5,1.1,0.9,1.5c0.4,0.4,1,0.8,1.6,1c0.6,0.2,1.4,0.4,2.3,0.4l1,0l1.1-0.1l1-0.2l1.3-0.4l0-0.3V12.6z"/>
<path class="st0" d="M66.8,5.5L62,14.8h2.4c0,0,1.1-2.4,1.3-2.8c0.5,0,2.8,0,3.4,0c0.2,0.4,1.3,2.9,1.3,2.9h3.4l-4.2-9.3L66.8,5.5z
	 M66.5,10.3c0.2-0.5,0.6-1.3,1-2.2c0.4,0.9,0.7,1.6,0.9,2.2H66.5z"/>
<path class="st0" d="M55.5,6.4c-0.6-0.4-1.2-0.6-2-0.8c-0.8-0.2-1.6-0.2-2.5-0.2l-1,0l-1,0l-1,0.1l-1.3,0.1l0,0.3v0.6c0,0,0,0,0,0
	c0.1,0.1,0.8,0.6,1,0.6c0.2,0,1-0.1,1.8-0.1c0,0,0.1,0,0.1,0c0,0,0.3,0,0.3,0l0.3,0c2.8,0,4.1,1.2,4.1,2.9c0,1.4-0.4,3.3-4.1,3.3
	l-0.2,0c0,0-1.3,0-1.8,0c-0.5,0-0.9,0.2-1.4,0.6v0.8l1.2,0.1l0.9,0l1,0l1,0c1.1,0,2.1-0.1,2.9-0.4c0.8-0.2,1.5-0.6,2-1
	c0.5-0.4,0.9-1,1.2-1.6c0.2-0.6,0.4-1.3,0.4-2c0-0.8-0.2-1.4-0.5-2C56.5,7.2,56.1,6.7,55.5,6.4"/>
<rect x="58.5" y="5.4" class="st0" width="3.1" height="9.3"/>
<polygon class="st0" points="51.1,10.2 48.3,7.6 47.8,7.6 47.8,7.6 47.8,12.8 48.3,12.8 "/>
<path class="st0" d="M16.3,15.8h-2c-1,0-4.9,1.7-4.9,1.7h4.2c0,0,0.1,0,0.1,0c0.6,0,2.8-1.2,2.8-1.6C16.5,15.9,16.5,15.8,16.3,15.8
	 M18.4,3.4c-0.4-0.4-0.8-0.6-1.4-0.6c0,0-1.2,0.7-2.4,1.6h1.1c0.9,0,1.4,0.7,1.4,1.4v0.9c-0.1,1.9-2.9,5.9-8.4,9.1H5.9
	c-0.7-0.1-1-0.8-1-1.4v-1c0,0,0-0.1,0-0.1c0-0.9,0.7-2.3,2-3.8C10.8,5.1,17.9,1.8,18,1.8c0.1-0.1,0.2-0.2,0.1-0.3
	c-0.1-0.1-0.2-0.2-0.3-0.1c0,0,0,0,0,0c-0.4,0.1-1.5,0.5-3.7,1.5H7.8C6.9,2.9,5.5,4,5.5,4.3v0c0,0.1,0,0.1,0.1,0.1h5
	c-1.9,1-4,2.4-5.1,3.1c0,0-0.4,0.3-0.6,0.4V5.3c0,0,0-0.1,0-0.1c0,0-0.1-0.1-0.1-0.1c-0.4,0-1.6,1.5-1.6,2.3l0,0v8.3
	c0,0.9,0.5,1.8,1.5,1.9l0,0h1c-1.1,0.5-1.9,0.8-1.9,0.8c-0.1,0-0.2,0.1-0.2,0.2c0,0,0,0.1,0,0.1c0,0.1,0.2,0.2,0.3,0.2l0,0
	c0.3-0.1,2.2-0.5,5.8-2.1c0.4-0.2,0.7-0.3,1.1-0.5c0,0,0.4-0.2,0.4-0.2c3.6-2.1,5.7-4.3,5.9-4.4V15c0,0.1,0,0.1,0,0.2
	c0,0.1,0.1,0.1,0.2,0.1c0.5,0,1.7-1.6,1.7-2.2c0-0.1,0-0.9,0-1l0,0V4.8C19,4.2,18.8,3.8,18.4,3.4z"/>
</svg>
